<svg version="1.1" id="Layer_1" xmlns="http://www.w3.org/2000/svg" xmlns:xlink="http://www.w3.org/1999/xlink" x="0px" y="0px"
	 width="100%" viewBox="0 0 798 220" enable-background="new 0 0 798 220" xml:space="preserve">
<path fill="#FEFFFF" opacity="1.000000" stroke="none" 
	d="
M576.000000,221.000000 
	C384.000031,221.000000 192.500046,221.000000 1.000051,221.000000 
	C1.000034,147.666702 1.000034,74.333397 1.000017,1.000047 
	C133.999954,1.000000 266.999908,1.000000 399.999847,1.000000 
	C532.999817,1.000000 665.999817,1.000000 798.999878,1.000000 
	C798.999878,74.333260 798.999878,147.666519 798.999939,220.999893 
	C724.833313,221.000000 650.666687,221.000000 576.000000,221.000000 
M345.212128,147.848892 
	C349.184662,148.441208 348.870819,145.785004 348.867249,143.177933 
	C348.836060,120.518517 348.853027,97.859047 348.837494,75.199593 
	C348.836731,74.091888 348.667206,72.984299 348.567993,71.775513 
	C342.837311,71.775513 337.446320,71.775513 331.296814,71.775513 
	C331.296814,79.248787 331.296814,86.403587 331.296814,93.839958 
	C313.677246,85.878647 300.965973,87.917343 292.388306,99.613182 
	C283.538422,111.680214 284.344177,130.383530 294.243286,141.219223 
	C298.821350,146.230423 304.742279,148.724182 311.313416,149.748596 
	C319.325775,150.997742 326.355103,148.797150 332.471985,142.477844 
	C332.771271,144.734512 332.957062,146.135544 333.184357,147.849258 
	C336.983429,147.849258 340.632111,147.849258 345.212128,147.848892 
M64.766190,116.061646 
	C63.965546,118.283012 63.164902,120.504379 62.364258,122.725746 
	C60.836666,120.905556 60.305363,119.226898 59.817871,117.535614 
	C55.776260,103.513786 51.793861,89.474403 47.632431,75.488274 
	C47.187019,73.991287 45.782101,71.717857 44.703094,71.648094 
	C38.835648,71.268715 32.930801,71.467834 27.016180,71.467834 
	C27.016180,72.752121 26.889254,73.277748 27.034353,73.712601 
	C34.835377,97.090843 42.694599,120.449768 50.436737,143.847443 
	C51.418274,146.813766 52.930847,148.227921 56.166241,148.057983 
	C60.149300,147.848770 64.172752,147.755676 68.139305,148.086060 
	C71.479446,148.364273 72.667732,146.969009 73.631172,143.976334 
	C78.420372,129.099945 83.460464,114.304337 88.412163,99.480263 
	C91.492905,90.257362 94.573570,81.034431 97.779190,71.437531 
	C91.891014,71.437531 86.567192,71.609177 81.261932,71.369682 
	C78.332695,71.237457 77.144943,72.452911 76.410736,75.073769 
	C72.652443,88.489494 68.775810,101.872070 64.766190,116.061646 
M228.699432,139.778564 
	C237.442337,148.866638 247.804047,152.091141 260.018372,148.272766 
	C269.226959,145.394012 275.362701,139.313675 279.072662,130.165146 
	C266.703979,129.632385 266.703979,129.632385 256.133698,134.436356 
	C248.770508,137.782776 239.008743,132.290955 239.009415,124.249359 
	C252.906586,124.249359 266.814484,124.249359 280.560974,124.249359 
	C284.372314,109.707123 273.061371,91.608253 256.743530,89.007996 
	C243.666138,86.924110 231.782150,92.410660 225.264877,103.469032 
	C218.333847,115.229454 219.398315,128.059875 228.699432,139.778564 
M123.693123,133.128906 
	C121.565208,130.676254 119.437294,128.223587 117.309380,125.770935 
	C117.658691,125.263481 118.008011,124.756035 118.357323,124.248581 
	C132.402283,124.248581 146.447235,124.248581 160.364380,124.248581 
	C163.197556,107.104942 151.848740,91.104805 135.850662,88.898651 
	C118.605637,86.520554 102.828560,98.445404 100.981903,115.253647 
	C99.004105,133.255569 111.138382,148.320602 128.864105,149.870163 
	C142.000641,151.018539 156.993118,140.761276 157.615280,130.059982 
	C150.281830,130.257919 143.021881,128.902618 136.066162,133.700806 
	C133.447128,135.507446 128.336029,133.701416 123.693123,133.128906 
M625.346130,149.954514 
	C623.325989,149.865631 621.305847,149.776749 618.767700,149.665085 
	C619.623962,151.735229 620.088074,152.949783 620.621582,154.133026 
	C625.938843,165.925476 638.930481,172.182419 653.084106,169.779587 
	C666.106140,167.568909 674.551819,158.402847 675.118103,144.735138 
	C675.669434,131.429703 675.450073,118.092041 675.550293,104.768387 
	C675.582581,100.474617 675.555359,96.180389 675.555359,91.718155 
	C672.644958,91.718155 670.403748,91.718155 667.766846,91.718155 
	C667.766846,94.551338 667.766846,97.117493 667.766846,99.946510 
	C650.747559,87.251862 636.074097,86.860039 625.163513,98.523079 
	C613.840454,110.627052 613.358093,127.707474 624.055176,139.606400 
	C629.942261,146.154968 637.312744,149.345398 646.150085,149.362045 
	C654.964172,149.378647 661.954163,145.615005 667.833252,138.626801 
	C668.698914,157.415268 657.184021,167.419739 640.838440,162.941360 
	C633.913391,161.044006 629.863342,155.809998 625.346130,149.954514 
M693.952332,141.572281 
	C703.271179,149.488663 713.748779,151.753555 725.054993,146.891541 
	C732.599487,143.647186 739.086548,138.866989 740.694275,129.835403 
	C736.390747,128.432480 733.944458,129.927139 731.683899,133.373779 
	C726.420715,141.398209 717.147278,144.558701 708.094238,141.959045 
	C699.301514,139.434174 693.010864,131.986664 692.469421,122.488052 
	C709.292969,122.488052 726.100525,122.488052 743.067078,122.488052 
	C743.504517,108.938339 738.037842,99.559593 727.458374,93.451035 
	C715.095520,86.312790 698.842834,90.302933 690.074524,102.042671 
	C681.122864,114.027855 682.499023,129.946686 693.952332,141.572281 
M213.374298,87.503166 
	C213.374298,82.107712 213.374298,76.712257 213.374298,71.476082 
	C207.330383,71.476082 202.091599,71.476082 196.659454,71.476082 
	C196.659454,97.019661 196.659454,122.229652 196.659454,147.625977 
	C202.254425,147.625977 207.609360,147.625977 213.373901,147.625977 
	C213.373901,127.706413 213.373901,108.104347 213.374298,87.503166 
M607.944824,118.500008 
	C607.944824,109.562157 607.944824,100.624298 607.944824,91.539520 
	C605.303650,91.539520 603.235779,91.539520 601.086548,91.539520 
	C600.846252,94.279648 600.627991,96.768196 600.377747,99.621643 
	C583.386353,87.278168 568.165283,87.066368 556.794861,98.576347 
	C546.481262,109.016548 544.985046,125.675514 553.406189,136.885391 
	C557.841125,142.788925 563.606873,146.948166 570.828369,148.518036 
	C582.128845,150.974640 592.020020,147.896667 600.548279,138.913467 
	C600.750427,142.554108 600.894165,145.143616 601.034180,147.665649 
	C603.430420,147.665649 605.518921,147.665649 607.944824,147.665649 
	C607.944824,138.093231 607.944824,128.796631 607.944824,118.500008 
M381.392365,117.933533 
	C375.843323,104.105133 370.307617,90.271370 364.738739,76.450958 
	C362.485443,70.858932 360.948486,70.172829 354.933685,71.900414 
	C354.933685,72.388840 354.782257,72.944344 354.955383,73.366852 
	C364.692139,97.128601 374.379852,120.911423 384.378601,144.562714 
	C385.086517,146.237274 388.099121,147.811966 390.047241,147.820648 
	C391.709259,147.828033 394.177307,145.863281 394.920563,144.170242 
	C399.850250,132.941254 404.417175,121.552826 409.090637,110.211533 
	C414.382568,97.369331 419.662476,84.522163 424.940155,71.695175 
	C419.550262,70.049522 416.391815,71.731483 414.463379,76.717194 
	C409.440399,89.703629 404.179565,102.598549 398.958496,115.507690 
	C396.020966,122.770821 392.974335,129.989838 389.606201,138.123856 
	C386.694366,130.903763 384.217773,124.762924 381.392365,117.933533 
M441.451721,144.096634 
	C457.387085,154.929810 477.910553,148.611069 485.672089,130.482132 
	C491.263306,117.422394 485.770172,101.602303 473.084991,94.231422 
	C459.724792,86.468323 443.884796,89.359177 435.172089,101.150658 
	C424.169250,116.041527 426.055084,130.293716 441.451721,144.096634 
M531.674561,103.087288 
	C527.077148,113.770218 522.479675,124.453156 517.516907,135.984924 
	C516.489807,133.796906 515.874390,132.639191 515.389465,131.429123 
	C510.639465,119.576553 505.933624,107.706207 501.166595,95.860481 
	C498.982452,90.433006 497.734741,89.969643 492.023529,92.341965 
	C498.461761,108.306343 504.835724,124.300476 511.382172,140.223694 
	C513.238647,144.739304 512.983093,148.800568 510.720337,153.108612 
	C508.276154,157.762100 506.319763,162.671829 504.161011,167.446823 
	C509.531494,169.267273 512.139954,167.028137 514.043823,162.461594 
	C520.099854,147.935638 526.463562,133.538284 532.648438,119.065636 
	C536.526917,109.989899 540.297729,100.868164 544.153625,91.679443 
	C539.297974,90.264076 536.231445,91.447433 534.677795,95.984489 
	C533.929871,98.168472 532.860535,100.242393 531.674561,103.087288 
M185.998276,93.637779 
	C185.253677,92.667900 184.552963,90.902557 183.757294,90.858658 
	C178.986862,90.595459 174.194580,90.728149 169.327759,90.728149 
	C169.327759,110.043137 169.327759,128.892426 169.327759,147.690384 
	C175.000610,147.690384 180.272415,147.690384 185.999664,147.690384 
	C185.999664,129.843689 185.999664,112.231384 185.998276,93.637779 
M757.189453,91.280334 
	C755.788086,91.369804 754.386719,91.459274 753.173340,91.536743 
	C753.173340,110.666382 753.173340,129.233185 753.173340,147.584274 
	C755.603333,147.584274 757.668579,147.584274 759.948059,147.584274 
	C759.948059,136.413635 759.857056,125.599854 759.976746,114.788399 
	C760.072815,106.113365 763.656738,101.263916 771.749023,98.314758 
	C773.117676,97.815979 774.500793,97.357216 775.693665,96.943619 
	C775.693665,94.450058 775.693665,92.342606 775.693665,90.144188 
	C768.918152,89.710861 764.349487,93.205864 760.851562,97.618774 
	C759.853821,95.370895 758.950195,93.334946 757.189453,91.280334 
M168.902939,81.223373 
	C169.570251,82.273537 170.189636,84.193611 170.912598,84.233429 
	C175.799057,84.502563 180.707458,84.373863 185.496033,84.373863 
	C185.496033,79.555954 185.496033,75.666275 185.496033,71.672592 
	C179.867142,71.672592 174.612564,71.672592 168.902435,71.672592 
	C168.902435,74.723747 168.902435,77.513916 168.902939,81.223373 
z"/>
<path fill="#08C168" opacity="1.000000" stroke="none" 
	d="
M344.746460,147.849075 
	C340.632111,147.849258 336.983429,147.849258 333.184357,147.849258 
	C332.957062,146.135544 332.771271,144.734512 332.471985,142.477844 
	C326.355103,148.797150 319.325775,150.997742 311.313416,149.748596 
	C304.742279,148.724182 298.821350,146.230423 294.243286,141.219223 
	C284.344177,130.383530 283.538422,111.680214 292.388306,99.613182 
	C300.965973,87.917343 313.677246,85.878647 331.296814,93.839958 
	C331.296814,86.403587 331.296814,79.248787 331.296814,71.775513 
	C337.446320,71.775513 342.837311,71.775513 348.567993,71.775513 
	C348.667206,72.984299 348.836731,74.091888 348.837494,75.199593 
	C348.853027,97.859047 348.836060,120.518517 348.867249,143.177933 
	C348.870819,145.785004 349.184662,148.441208 344.746460,147.849075 
M325.810028,131.565048 
	C331.084778,127.964165 333.642578,122.882492 332.608063,116.654411 
	C331.640198,110.827385 327.730896,106.796104 322.116638,105.160904 
	C316.076904,103.401787 310.617432,104.972305 306.447754,109.933044 
	C302.494568,114.636246 302.483704,123.138153 306.336487,128.464539 
	C310.220367,133.833923 317.397705,135.172241 325.810028,131.565048 
z"/>
<path fill="#08C168" opacity="1.000000" stroke="none" 
	d="
M64.853363,115.663940 
	C68.775810,101.872070 72.652443,88.489494 76.410736,75.073769 
	C77.144943,72.452911 78.332695,71.237457 81.261932,71.369682 
	C86.567192,71.609177 91.891014,71.437531 97.779190,71.437531 
	C94.573570,81.034431 91.492905,90.257362 88.412163,99.480263 
	C83.460464,114.304337 78.420372,129.099945 73.631172,143.976334 
	C72.667732,146.969009 71.479446,148.364273 68.139305,148.086060 
	C64.172752,147.755676 60.149300,147.848770 56.166241,148.057983 
	C52.930847,148.227921 51.418274,146.813766 50.436737,143.847443 
	C42.694599,120.449768 34.835377,97.090843 27.034353,73.712601 
	C26.889254,73.277748 27.016180,72.752121 27.016180,71.467834 
	C32.930801,71.467834 38.835648,71.268715 44.703094,71.648094 
	C45.782101,71.717857 47.187019,73.991287 47.632431,75.488274 
	C51.793861,89.474403 55.776260,103.513786 59.817871,117.535614 
	C60.305363,119.226898 60.836666,120.905556 62.364258,122.725746 
	C63.164902,120.504379 63.965546,118.283012 64.853363,115.663940 
z"/>
<path fill="#08C168" opacity="1.000000" stroke="none" 
	d="
M228.466034,139.509354 
	C219.398315,128.059875 218.333847,115.229454 225.264877,103.469032 
	C231.782150,92.410660 243.666138,86.924110 256.743530,89.007996 
	C273.061371,91.608253 284.372314,109.707123 280.560974,124.249359 
	C266.814484,124.249359 252.906586,124.249359 239.009415,124.249359 
	C239.008743,132.290955 248.770508,137.782776 256.133698,134.436356 
	C266.703979,129.632385 266.703979,129.632385 279.072662,130.165146 
	C275.362701,139.313675 269.226959,145.394012 260.018372,148.272766 
	C247.804047,152.091141 237.442337,148.866638 228.466034,139.509354 
M263.011139,109.754425 
	C259.638092,103.954361 254.439819,102.491356 248.193604,103.518684 
	C242.995117,104.373695 239.584259,107.123489 238.256821,112.931099 
	C245.582169,112.931099 252.509872,112.931450 259.437592,112.930626 
	C260.266937,112.930527 261.318390,113.235664 261.870056,112.842499 
	C262.577789,112.338150 262.883667,111.269951 263.011139,109.754425 
z"/>
<path fill="#07C167" opacity="1.000000" stroke="none" 
	d="
M124.027069,133.335617 
	C128.336029,133.701416 133.447128,135.507446 136.066162,133.700806 
	C143.021881,128.902618 150.281830,130.257919 157.615280,130.059982 
	C156.993118,140.761276 142.000641,151.018539 128.864105,149.870163 
	C111.138382,148.320602 99.004105,133.255569 100.981903,115.253647 
	C102.828560,98.445404 118.605637,86.520554 135.850662,88.898651 
	C151.848740,91.104805 163.197556,107.104942 160.364380,124.248581 
	C146.447235,124.248581 132.402283,124.248581 118.357323,124.248581 
	C118.008011,124.756035 117.658691,125.263481 117.309380,125.770935 
	C119.437294,128.223587 121.565208,130.676254 124.027069,133.335617 
M136.936020,104.170418 
	C127.583305,100.986671 120.261604,104.423889 118.637520,112.827713 
	C126.868393,112.827713 135.084106,112.827713 145.097519,112.827713 
	C142.026764,109.421600 139.824326,106.978615 136.936020,104.170418 
z"/>
<path fill="#161616" opacity="1.000000" stroke="none" 
	d="
M625.643860,150.171188 
	C629.863342,155.809998 633.913391,161.044006 640.838440,162.941360 
	C657.184021,167.419739 668.698914,157.415268 667.833252,138.626801 
	C661.954163,145.615005 654.964172,149.378647 646.150085,149.362045 
	C637.312744,149.345398 629.942261,146.154968 624.055176,139.606400 
	C613.358093,127.707474 613.840454,110.627052 625.163513,98.523079 
	C636.074097,86.860039 650.747559,87.251862 667.766846,99.946510 
	C667.766846,97.117493 667.766846,94.551338 667.766846,91.718155 
	C670.403748,91.718155 672.644958,91.718155 675.555359,91.718155 
	C675.555359,96.180389 675.582581,100.474617 675.550293,104.768387 
	C675.450073,118.092041 675.669434,131.429703 675.118103,144.735138 
	C674.551819,158.402847 666.106140,167.568909 653.084106,169.779587 
	C638.930481,172.182419 625.938843,165.925476 620.621582,154.133026 
	C620.088074,152.949783 619.623962,151.735229 618.767700,149.665085 
	C621.305847,149.776749 623.325989,149.865631 625.643860,150.171188 
M658.850403,100.479401 
	C653.288391,96.491096 647.260498,94.968040 640.560059,97.035561 
	C631.350403,99.877319 625.789734,105.995270 624.051270,115.505905 
	C622.168640,125.805183 625.925598,133.978561 634.433838,139.489594 
	C641.743164,144.223969 649.834534,144.468613 657.404114,139.706467 
	C671.045959,131.124100 673.111206,112.213867 658.850403,100.479401 
z"/>
<path fill="#0F0F0F" opacity="1.000000" stroke="none" 
	d="
M693.700073,141.317184 
	C682.499023,129.946686 681.122864,114.027855 690.074524,102.042671 
	C698.842834,90.302933 715.095520,86.312790 727.458374,93.451035 
	C738.037842,99.559593 743.504517,108.938339 743.067078,122.488052 
	C726.100525,122.488052 709.292969,122.488052 692.469421,122.488052 
	C693.010864,131.986664 699.301514,139.434174 708.094238,141.959045 
	C717.147278,144.558701 726.420715,141.398209 731.683899,133.373779 
	C733.944458,129.927139 736.390747,128.432480 740.694275,129.835403 
	C739.086548,138.866989 732.599487,143.647186 725.054993,146.891541 
	C713.748779,151.753555 703.271179,149.488663 693.700073,141.317184 
M699.851135,101.253662 
	C695.399170,105.019882 692.352905,109.533516 692.072266,115.635193 
	C706.719482,115.635193 721.213318,115.635193 735.740784,115.635193 
	C733.430115,97.921371 712.941833,91.031197 699.851135,101.253662 
z"/>
<path fill="#09C168" opacity="1.000000" stroke="none" 
	d="
M213.374100,88.002716 
	C213.373901,108.104347 213.373901,127.706413 213.373901,147.625977 
	C207.609360,147.625977 202.254425,147.625977 196.659454,147.625977 
	C196.659454,122.229652 196.659454,97.019661 196.659454,71.476082 
	C202.091599,71.476082 207.330383,71.476082 213.374298,71.476082 
	C213.374298,76.712257 213.374298,82.107712 213.374100,88.002716 
z"/>
<path fill="#121212" opacity="1.000000" stroke="none" 
	d="
M607.944824,119.000015 
	C607.944824,128.796631 607.944824,138.093231 607.944824,147.665649 
	C605.518921,147.665649 603.430420,147.665649 601.034180,147.665649 
	C600.894165,145.143616 600.750427,142.554108 600.548279,138.913467 
	C592.020020,147.896667 582.128845,150.974640 570.828369,148.518036 
	C563.606873,146.948166 557.841125,142.788925 553.406189,136.885391 
	C544.985046,125.675514 546.481262,109.016548 556.794861,98.576347 
	C568.165283,87.066368 583.386353,87.278168 600.377747,99.621643 
	C600.627991,96.768196 600.846252,94.279648 601.086548,91.539520 
	C603.235779,91.539520 605.303650,91.539520 607.944824,91.539520 
	C607.944824,100.624298 607.944824,109.562157 607.944824,119.000015 
M597.169861,106.481697 
	C590.957581,97.815987 582.503357,94.647003 572.027405,97.057266 
	C563.480469,99.023720 556.347473,107.477844 555.134033,117.079460 
	C553.916748,126.711845 558.670593,135.648315 567.360535,140.063202 
	C576.351807,144.631180 586.513794,143.515701 593.239868,137.222412 
	C602.206360,128.832870 603.540894,119.709862 597.169861,106.481697 
z"/>
<path fill="#101010" opacity="1.000000" stroke="none" 
	d="
M381.566772,118.277809 
	C384.217773,124.762924 386.694366,130.903763 389.606201,138.123856 
	C392.974335,129.989838 396.020966,122.770821 398.958496,115.507690 
	C404.179565,102.598549 409.440399,89.703629 414.463379,76.717194 
	C416.391815,71.731483 419.550262,70.049522 424.940155,71.695175 
	C419.662476,84.522163 414.382568,97.369331 409.090637,110.211533 
	C404.417175,121.552826 399.850250,132.941254 394.920563,144.170242 
	C394.177307,145.863281 391.709259,147.828033 390.047241,147.820648 
	C388.099121,147.811966 385.086517,146.237274 384.378601,144.562714 
	C374.379852,120.911423 364.692139,97.128601 354.955383,73.366852 
	C354.782257,72.944344 354.933685,72.388840 354.933685,71.900414 
	C360.948486,70.172829 362.485443,70.858932 364.738739,76.450958 
	C370.307617,90.271370 375.843323,104.105133 381.566772,118.277809 
z"/>
<path fill="#121212" opacity="1.000000" stroke="none" 
	d="
M441.130981,143.928955 
	C426.055084,130.293716 424.169250,116.041527 435.172089,101.150658 
	C443.884796,89.359177 459.724792,86.468323 473.084991,94.231422 
	C485.770172,101.602303 491.263306,117.422394 485.672089,130.482132 
	C477.910553,148.611069 457.387085,154.929810 441.130981,143.928955 
M474.209991,103.321396 
	C462.872314,92.313789 450.523102,95.142441 442.113953,103.532127 
	C434.207031,111.420723 433.585785,125.793640 440.739594,134.368622 
	C448.799866,144.030167 461.190094,145.739197 471.316010,138.556747 
	C480.113525,132.316513 485.533691,116.187309 474.209991,103.321396 
z"/>
<path fill="#151515" opacity="1.000000" stroke="none" 
	d="
M531.805664,102.726723 
	C532.860535,100.242393 533.929871,98.168472 534.677795,95.984489 
	C536.231445,91.447433 539.297974,90.264076 544.153625,91.679443 
	C540.297729,100.868164 536.526917,109.989899 532.648438,119.065636 
	C526.463562,133.538284 520.099854,147.935638 514.043823,162.461594 
	C512.139954,167.028137 509.531494,169.267273 504.161011,167.446823 
	C506.319763,162.671829 508.276154,157.762100 510.720337,153.108612 
	C512.983093,148.800568 513.238647,144.739304 511.382172,140.223694 
	C504.835724,124.300476 498.461761,108.306343 492.023529,92.341965 
	C497.734741,89.969643 498.982452,90.433006 501.166595,95.860481 
	C505.933624,107.706207 510.639465,119.576553 515.389465,131.429123 
	C515.874390,132.639191 516.489807,133.796906 517.516907,135.984924 
	C522.479675,124.453156 527.077148,113.770218 531.805664,102.726723 
z"/>
<path fill="#04C065" opacity="1.000000" stroke="none" 
	d="
M185.998962,94.128433 
	C185.999664,112.231384 185.999664,129.843689 185.999664,147.690384 
	C180.272415,147.690384 175.000610,147.690384 169.327759,147.690384 
	C169.327759,128.892426 169.327759,110.043137 169.327759,90.728149 
	C174.194580,90.728149 178.986862,90.595459 183.757294,90.858658 
	C184.552963,90.902557 185.253677,92.667900 185.998962,94.128433 
z"/>
<path fill="#0E0E0E" opacity="1.000000" stroke="none" 
	d="
M757.617981,91.289665 
	C758.950195,93.334946 759.853821,95.370895 760.851562,97.618774 
	C764.349487,93.205864 768.918152,89.710861 775.693665,90.144188 
	C775.693665,92.342606 775.693665,94.450058 775.693665,96.943619 
	C774.500793,97.357216 773.117676,97.815979 771.749023,98.314758 
	C763.656738,101.263916 760.072815,106.113365 759.976746,114.788399 
	C759.857056,125.599854 759.948059,136.413635 759.948059,147.584274 
	C757.668579,147.584274 755.603333,147.584274 753.173340,147.584274 
	C753.173340,129.233185 753.173340,110.666382 753.173340,91.536743 
	C754.386719,91.459274 755.788086,91.369804 757.617981,91.289665 
z"/>
<path fill="#10C36D" opacity="1.000000" stroke="none" 
	d="
M168.902679,80.763733 
	C168.902435,77.513916 168.902435,74.723747 168.902435,71.672592 
	C174.612564,71.672592 179.867142,71.672592 185.496033,71.672592 
	C185.496033,75.666275 185.496033,79.555954 185.496033,84.373863 
	C180.707458,84.373863 175.799057,84.502563 170.912598,84.233429 
	C170.189636,84.193611 169.570251,82.273537 168.902679,80.763733 
z"/>
<path fill="#F9FCFA" opacity="1.000000" stroke="none" 
	d="
M325.487061,131.770142 
	C317.397705,135.172241 310.220367,133.833923 306.336487,128.464539 
	C302.483704,123.138153 302.494568,114.636246 306.447754,109.933044 
	C310.617432,104.972305 316.076904,103.401787 322.116638,105.160904 
	C327.730896,106.796104 331.640198,110.827385 332.608063,116.654411 
	C333.642578,122.882492 331.084778,127.964165 325.487061,131.770142 
z"/>
<path fill="#F4FBF7" opacity="1.000000" stroke="none" 
	d="
M263.186920,110.099556 
	C262.883667,111.269951 262.577789,112.338150 261.870056,112.842499 
	C261.318390,113.235664 260.266937,112.930527 259.437592,112.930626 
	C252.509872,112.931450 245.582169,112.931099 238.256821,112.931099 
	C239.584259,107.123489 242.995117,104.373695 248.193604,103.518684 
	C254.439819,102.491356 259.638092,103.954361 263.186920,110.099556 
z"/>
<path fill="#F8FCFA" opacity="1.000000" stroke="none" 
	d="
M137.278946,104.353027 
	C139.824326,106.978615 142.026764,109.421600 145.097519,112.827713 
	C135.084106,112.827713 126.868393,112.827713 118.637520,112.827713 
	C120.261604,104.423889 127.583305,100.986671 137.278946,104.353027 
z"/>
<path fill="#FBFBFB" opacity="1.000000" stroke="none" 
	d="
M659.142456,100.704063 
	C673.111206,112.213867 671.045959,131.124100 657.404114,139.706467 
	C649.834534,144.468613 641.743164,144.223969 634.433838,139.489594 
	C625.925598,133.978561 622.168640,125.805183 624.051270,115.505905 
	C625.789734,105.995270 631.350403,99.877319 640.560059,97.035561 
	C647.260498,94.968040 653.288391,96.491096 659.142456,100.704063 
z"/>
<path fill="#F4F4F4" opacity="1.000000" stroke="none" 
	d="
M700.158569,101.056541 
	C712.941833,91.031197 733.430115,97.921371 735.740784,115.635193 
	C721.213318,115.635193 706.719482,115.635193 692.072266,115.635193 
	C692.352905,109.533516 695.399170,105.019882 700.158569,101.056541 
z"/>
<path fill="#FBFBFB" opacity="1.000000" stroke="none" 
	d="
M597.411377,106.768364 
	C603.540894,119.709862 602.206360,128.832870 593.239868,137.222412 
	C586.513794,143.515701 576.351807,144.631180 567.360535,140.063202 
	C558.670593,135.648315 553.916748,126.711845 555.134033,117.079460 
	C556.347473,107.477844 563.480469,99.023720 572.027405,97.057266 
	C582.503357,94.647003 590.957581,97.815987 597.411377,106.768364 
z"/>
<path fill="#FBFBFB" opacity="1.000000" stroke="none" 
	d="
M474.468933,103.578979 
	C485.533691,116.187309 480.113525,132.316513 471.316010,138.556747 
	C461.190094,145.739197 448.799866,144.030167 440.739594,134.368622 
	C433.585785,125.793640 434.207031,111.420723 442.113953,103.532127 
	C450.523102,95.142441 462.872314,92.313789 474.468933,103.578979 
z"/>
</svg>