	<svg version="1.1" id="Layer_1" xmlns="http://www.w3.org/2000/svg" xmlns:xlink="http://www.w3.org/1999/xlink" x="0px" y="0px"
	 width="100%" viewBox="0 0 1200 1200" enable-background="new 0 0 1200 1200" xml:space="preserve">
<path fill="#000000" opacity="1.000000" stroke="none" 
	d="
M670.000000,1201.000000 
	C446.666656,1201.000000 223.833328,1201.000000 1.000000,1201.000000 
	C1.000000,801.000000 1.000000,401.000000 1.000000,1.000000 
	C401.000000,1.000000 801.000000,1.000000 1201.000000,1.000000 
	C1201.000000,401.000000 1201.000000,801.000000 1201.000000,1201.000000 
	C1024.166626,1201.000000 847.333313,1201.000000 670.000000,1201.000000 
M732.500000,742.997192 
	C822.831787,742.997192 913.163513,743.016663 1003.495300,742.955017 
	C1009.775391,742.950745 1016.077393,742.573547 1022.330688,741.970764 
	C1037.715210,740.488098 1052.341187,736.066101 1066.181274,729.320251 
	C1090.831787,717.305298 1110.406250,699.554871 1125.140381,676.384155 
	C1139.035400,654.532898 1145.876953,630.467285 1146.770996,604.864075 
	C1147.136108,594.407227 1145.688599,583.739685 1143.855225,573.382263 
	C1139.163574,546.878357 1126.955811,523.960083 1108.720825,504.256927 
	C1094.844360,489.263153 1078.568970,477.670258 1059.614136,469.828796 
	C1044.405762,463.537201 1028.690796,459.103241 1012.239075,459.095306 
	C741.911072,458.964752 471.582977,458.995056 201.254913,459.044342 
	C193.975006,459.045654 186.656372,459.295837 179.422699,460.061829 
	C158.960052,462.228760 140.049545,469.103882 122.604225,479.943237 
	C103.458611,491.839050 88.049911,507.543365 76.157326,526.641724 
	C62.593769,548.423462 55.892410,572.419128 55.213928,597.883362 
	C54.939392,608.187073 56.302029,618.683167 58.157890,628.866028 
	C62.980492,655.327026 75.162979,678.251770 93.447960,697.926758 
	C107.242882,712.770386 123.382851,724.277222 142.156906,732.074341 
	C157.820206,738.579529 174.007095,742.933228 191.010529,742.941772 
	C371.173645,743.031860 551.336853,742.997375 732.500000,742.997192 
z"/>
<path fill="#394C92" opacity="1.000000" stroke="none" 
	d="
M732.000000,742.997192 
	C551.336853,742.997375 371.173645,743.031860 191.010529,742.941772 
	C174.007095,742.933228 157.820206,738.579529 142.156906,732.074341 
	C123.382851,724.277222 107.242882,712.770386 93.447960,697.926758 
	C75.162979,678.251770 62.980492,655.327026 58.157890,628.866028 
	C56.302029,618.683167 54.939392,608.187073 55.213928,597.883362 
	C55.892410,572.419128 62.593769,548.423462 76.157326,526.641724 
	C88.049911,507.543365 103.458611,491.839050 122.604225,479.943237 
	C140.049545,469.103882 158.960052,462.228760 179.422699,460.061829 
	C186.656372,459.295837 193.975006,459.045654 201.254913,459.044342 
	C471.582977,458.995056 741.911072,458.964752 1012.239075,459.095306 
	C1028.690796,459.103241 1044.405762,463.537201 1059.614136,469.828796 
	C1078.568970,477.670258 1094.844360,489.263153 1108.720825,504.256927 
	C1126.955811,523.960083 1139.163574,546.878357 1143.855225,573.382263 
	C1145.688599,583.739685 1147.136108,594.407227 1146.770996,604.864075 
	C1145.876953,630.467285 1139.035400,654.532898 1125.140381,676.384155 
	C1110.406250,699.554871 1090.831787,717.305298 1066.181274,729.320251 
	C1052.341187,736.066101 1037.715210,740.488098 1022.330688,741.970764 
	C1016.077393,742.573547 1009.775391,742.950745 1003.495300,742.955017 
	C913.163513,743.016663 822.831787,742.997192 732.000000,742.997192 
M319.500000,733.935608 
	C546.811218,733.935547 774.122437,733.972717 1001.433594,733.812317 
	C1011.526306,733.805237 1021.781433,732.833496 1031.683472,730.894470 
	C1100.166138,717.484192 1147.188599,649.280090 1135.738159,580.483582 
	C1124.794800,514.734009 1069.900635,468.086060 1003.238708,468.078339 
	C735.097900,468.047180 466.957123,468.050781 198.816345,468.141205 
	C191.354706,468.143738 183.826096,468.826294 176.442474,469.943573 
	C102.009323,481.206909 51.424534,555.095703 67.677429,628.615723 
	C81.446335,690.899414 134.774704,733.851257 198.511581,733.925781 
	C238.507660,733.972473 278.503845,733.935181 319.500000,733.935608 
z"/>
<path fill="#FAFAF0" opacity="1.000000" stroke="none" 
	d="
M319.000000,733.935608 
	C278.503845,733.935181 238.507660,733.972473 198.511581,733.925781 
	C134.774704,733.851257 81.446335,690.899414 67.677429,628.615723 
	C51.424534,555.095703 102.009323,481.206909 176.442474,469.943573 
	C183.826096,468.826294 191.354706,468.143738 198.816345,468.141205 
	C466.957123,468.050781 735.097900,468.047180 1003.238708,468.078339 
	C1069.900635,468.086060 1124.794800,514.734009 1135.738159,580.483582 
	C1147.188599,649.280090 1100.166138,717.484192 1031.683472,730.894470 
	C1021.781433,732.833496 1011.526306,733.805237 1001.433594,733.812317 
	C774.122437,733.972717 546.811218,733.935547 319.000000,733.935608 
M289.714020,682.824524 
	C316.340210,653.349243 326.663849,618.903503 319.985779,579.820435 
	C304.523865,489.330322 195.395126,449.074310 124.696358,507.611603 
	C123.325325,508.746796 122.257889,510.248688 120.140671,511.511292 
	C114.223625,510.030762 114.235214,510.031281 113.970009,515.864685 
	C113.925323,516.847412 113.731781,517.823425 112.971893,518.968933 
	C111.800682,520.141724 110.528885,521.230835 109.473000,522.499634 
	C85.344131,551.494385 76.050385,584.839111 82.410995,621.844727 
	C97.959663,712.305969 205.925873,752.575623 277.163239,694.781860 
	C278.659821,693.567749 279.818146,691.936768 281.822052,690.432434 
	C283.796478,690.718445 285.770935,691.004456 287.378265,691.237305 
	C288.046356,688.054138 288.568787,685.565002 289.714020,682.824524 
M656.709961,571.604614 
	C656.633484,568.942871 656.994568,566.161560 656.312622,563.665161 
	C655.917908,562.220337 653.636780,560.046570 652.558167,560.234192 
	C645.396545,561.479553 638.285278,563.109924 631.273743,565.037537 
	C629.948181,565.401978 628.507263,567.579956 628.322693,569.070129 
	C628.201294,570.050049 630.034790,571.739563 631.346313,572.343262 
	C635.562195,574.283447 635.861755,577.062805 633.976807,580.747559 
	C618.923096,576.365540 610.322083,578.528381 603.228455,588.344116 
	C596.575623,597.549683 596.410034,609.252930 603.232849,618.654724 
	C612.094971,630.866821 622.995056,632.140381 634.534790,623.728516 
	C636.476624,625.828857 638.087158,628.856750 639.346313,628.717041 
	C645.881104,627.992004 652.484497,626.967102 658.744141,625.019043 
	C662.580505,623.825073 662.342590,620.750122 659.938538,617.416504 
	C658.330261,615.186340 656.925354,612.234314 656.855713,609.568054 
	C656.533752,597.244812 656.711365,584.908386 656.709961,571.604614 
M942.489746,617.052368 
	C941.158813,617.059143 939.651611,617.468384 938.537476,616.980286 
	C936.780334,616.210449 935.287292,614.837830 933.682434,613.720337 
	C935.415771,612.973572 937.085266,611.876099 938.894592,611.546387 
	C944.085938,610.600464 949.455750,610.425049 954.526184,609.081665 
	C959.817261,607.679810 964.602905,604.486206 965.936951,598.900757 
	C967.235596,593.463318 967.989502,588.045776 971.460815,583.362976 
	C972.270569,582.270569 972.342834,579.775818 971.623657,578.646179 
	C970.902588,577.513611 967.987549,576.309692 967.373718,576.803284 
	C961.010132,581.919678 954.046021,580.889221 946.877502,579.567688 
	C938.293091,577.985229 930.281494,579.715942 923.226868,584.877014 
	C916.021973,590.148010 914.992615,597.759766 920.229675,604.942444 
	C921.266235,606.364136 922.382324,607.727844 923.449158,609.102112 
	C915.622742,615.488525 912.263550,617.437500 920.640137,627.470032 
	C913.391113,633.953613 914.518616,640.735596 923.594055,644.973083 
	C925.091492,645.672302 926.669006,646.288147 928.275391,646.651306 
	C937.717590,648.785950 947.128967,648.603455 956.365173,645.642029 
	C962.215515,643.766296 967.185547,640.552368 970.263794,634.958130 
	C975.562927,625.327637 970.762268,616.304565 959.825867,615.975037 
	C954.368286,615.810547 948.881165,616.627502 942.489746,617.052368 
M404.943481,598.391602 
	C408.557129,591.096069 412.226593,583.827515 415.762024,576.494263 
	C417.679474,572.517151 419.476166,568.763000 424.821655,568.414734 
	C425.997437,568.338135 427.815765,566.071533 427.903442,564.720276 
	C427.991913,563.357178 426.573730,560.977417 425.337097,560.596558 
	C417.371277,558.142700 409.225800,558.055603 401.351044,560.886169 
	C397.131409,562.402954 397.105957,565.165222 400.378082,568.334351 
	C401.487885,569.409241 402.817291,571.648315 402.395752,572.682861 
	C400.021393,578.510559 397.352661,584.246399 394.352356,589.779358 
	C392.793884,592.653381 390.294800,592.758606 388.730927,589.529419 
	C386.199310,584.301819 383.791199,579.004517 381.624939,573.618408 
	C381.211670,572.590881 381.759613,570.679199 382.544281,569.749634 
	C387.005096,564.465027 386.218750,560.909241 379.393188,560.280457 
	C371.028381,559.509888 362.530396,559.924927 354.105804,560.244263 
	C351.960510,560.325684 349.627411,561.649841 347.817444,562.992004 
	C344.750977,565.265869 345.111450,569.487122 348.569336,570.449463 
	C352.722565,571.605347 354.357239,574.600220 355.884888,577.953735 
	C362.564575,592.617249 369.214783,607.294128 375.881073,621.963745 
	C377.522736,625.576294 379.558167,628.744385 384.092102,628.971924 
	C388.934357,629.215027 391.189911,625.926270 393.050659,622.255615 
	C396.956543,614.550476 400.771606,606.799316 404.943481,598.391602 
M702.254150,566.760498 
	C703.655640,561.534485 699.542664,560.483704 696.311279,560.233459 
	C688.735168,559.646912 681.085388,559.607727 673.487854,559.910278 
	C670.655701,560.023071 667.597351,561.244507 665.155273,562.777710 
	C661.459229,565.098083 662.307922,568.711426 666.014954,570.900757 
	C668.524414,572.382751 671.101929,574.654114 672.351196,577.207397 
	C677.532593,587.797546 682.197693,598.639465 687.099365,609.367493 
	C689.445984,614.503540 691.586426,619.769592 694.381653,624.655640 
	C697.730774,630.509888 704.362061,630.616577 708.264343,625.133240 
	C709.699280,623.116943 710.810425,620.851257 711.918030,618.624084 
	C718.946716,604.490479 725.961548,590.349854 732.914368,576.178894 
	C734.786560,572.363037 736.551453,568.796021 741.680176,568.460205 
	C742.896484,568.380615 744.910278,566.105103 744.875183,564.888184 
	C744.830139,563.328064 743.366272,560.830505 742.024841,560.447021 
	C734.207214,558.212219 726.203369,558.072388 718.482544,560.823364 
	C714.067871,562.396362 714.134033,565.031921 717.636047,568.568970 
	C718.732361,569.676270 719.604492,572.189941 719.102051,573.488159 
	C717.070129,578.738525 714.702576,583.897827 711.994324,588.835938 
	C709.618530,593.167786 707.341675,592.911011 705.075745,588.346436 
	C703.229919,584.627930 701.828369,580.671814 699.787598,577.071777 
	C697.478333,572.998108 698.066650,569.935974 702.254150,566.760498 
M796.503906,589.992493 
	C798.190430,591.723328 800.417542,593.177307 801.470337,595.232727 
	C806.164673,604.397644 810.529907,613.731323 814.995239,623.013184 
	C815.570618,624.209167 816.549561,625.503113 816.447021,626.673218 
	C816.224731,629.207947 816.198181,633.079407 814.701233,633.915771 
	C811.291992,635.820679 811.073364,631.776733 810.223328,629.755005 
	C808.435425,625.503052 805.345215,624.071838 801.031860,624.922241 
	C797.071472,625.703064 794.249023,629.526306 794.483337,633.757690 
	C794.715759,637.955017 796.727478,641.594421 800.617615,642.656921 
	C805.262939,643.925598 810.420837,644.830933 815.099121,644.142761 
	C824.186523,642.806030 829.375793,635.951904 832.784912,628.090454 
	C836.810974,618.806458 840.109863,609.209229 843.828369,599.788940 
	C845.790039,594.819214 847.872375,589.980652 853.591064,587.868774 
	C854.812500,587.417664 856.001404,585.068176 855.975830,583.614807 
	C855.954834,582.418457 854.187927,580.326721 853.065125,580.235901 
	C848.174622,579.840637 843.155640,579.470520 838.338867,580.166992 
	C833.496887,580.867126 832.496521,583.839661 835.056946,588.046753 
	C837.563171,592.165039 836.079407,595.778503 833.799316,599.146667 
	C833.328186,599.842773 830.449097,600.019287 829.960876,599.409485 
	C827.176331,595.931580 824.166809,592.324829 826.990723,587.343872 
	C829.001709,583.796814 827.219299,581.200500 823.997803,580.342529 
	C814.785278,577.888855 805.486450,578.293823 796.582703,581.714294 
	C792.358826,583.336914 792.333069,586.269714 796.503906,589.992493 
M777.002014,624.657166 
	C795.994019,614.245972 793.571411,596.196899 784.449890,586.287720 
	C774.447266,575.421326 754.105469,575.313904 742.244873,585.921021 
	C734.409180,592.928650 731.899292,601.712769 734.431580,611.654602 
	C736.909363,621.382507 744.060608,626.304993 753.591431,628.293762 
	C761.605469,629.966003 769.082153,628.366577 777.002014,624.657166 
M883.702942,626.324951 
	C885.904785,625.183350 887.838196,622.620544 890.557556,625.788086 
	C896.583679,632.807312 909.540771,627.248169 912.138306,620.202454 
	C912.596985,618.958435 912.277405,616.166870 911.767761,616.021973 
	C906.873169,614.630005 907.428894,610.544495 907.181213,607.066223 
	C906.874268,602.756897 907.079590,598.412231 907.030945,594.083191 
	C906.964844,588.192078 904.055481,583.968079 899.095520,581.117920 
	C889.610046,575.667175 871.229431,578.257629 863.556946,586.109924 
	C861.028748,588.697388 859.570801,591.847412 862.176392,595.012695 
	C864.951111,598.383423 868.554993,597.579285 871.508972,595.212036 
	C873.674316,593.476685 874.992371,590.658325 877.202087,589.012817 
	C878.790100,587.830261 881.226135,587.786499 883.283813,587.234680 
	C884.123230,590.663757 885.306946,594.071960 885.516968,597.539185 
	C885.559937,598.248413 882.004822,599.346558 880.016541,599.975220 
	C874.556458,601.701355 868.689758,602.566345 863.661743,605.111206 
	C858.922424,607.509949 857.099487,612.550903 858.143555,618.003784 
	C859.145630,623.237488 862.610535,626.398315 867.574341,627.989014 
	C872.897034,629.694763 878.074280,629.317261 883.702942,626.324951 
M544.209595,601.911926 
	C543.797302,618.728394 555.971863,630.406067 572.687988,628.845764 
	C579.902588,628.172241 586.952454,626.227051 591.440308,619.938293 
	C592.540649,618.396423 592.153320,615.325256 591.487732,613.268555 
	C591.281250,612.630554 587.831604,612.663696 585.988098,613.019165 
	C582.927368,613.609375 580.006592,615.243408 576.952209,615.481934 
	C570.661255,615.972961 565.809814,611.507385 566.391602,606.003113 
	C573.653870,606.003113 580.958801,606.063049 588.262146,605.982727 
	C593.411255,605.926147 595.034973,604.159668 595.061584,598.966187 
	C595.101685,591.166077 589.199097,583.038513 581.228760,579.919128 
	C564.941711,573.544800 548.176208,583.152710 544.209595,601.911926 
M447.730896,628.487366 
	C453.818237,627.164429 459.896301,625.508667 463.596130,620.084045 
	C464.701721,618.463074 463.965485,615.585938 464.073151,613.284363 
	C462.007446,613.222900 459.881470,612.824158 457.890350,613.179932 
	C454.985748,613.699036 452.218140,615.253540 449.320770,615.489258 
	C443.073059,615.997559 438.222382,611.713196 438.398315,606.005859 
	C444.850128,606.005859 451.320190,606.008911 457.790222,606.005127 
	C466.778839,605.999878 469.324799,602.491943 466.429077,593.800049 
	C465.705994,591.629639 464.599701,589.499878 463.273926,587.632202 
	C456.926880,578.690674 445.113342,575.656982 433.713837,579.885681 
	C422.786926,583.939148 415.527832,594.906250 416.521088,605.860718 
	C417.914490,621.228333 429.773712,630.149231 447.730896,628.487366 
M979.965515,619.477417 
	C990.015747,630.698242 1007.582703,632.296143 1019.237793,622.979919 
	C1020.510254,621.962769 1022.117310,620.673340 1022.400696,619.273682 
	C1022.812500,617.239685 1022.651123,614.735352 1021.724976,612.957092 
	C1021.348755,612.234802 1018.258728,612.603149 1016.516785,612.987793 
	C1013.624817,613.626465 1010.875122,615.145569 1007.974792,615.462036 
	C1001.552124,616.163025 996.340271,611.756470 996.685181,606.003540 
	C1003.966125,606.003540 1011.276794,606.058350 1018.586182,605.985535 
	C1024.008057,605.931519 1026.127319,603.615356 1025.582642,598.146973 
	C1024.878418,591.077698 1021.391785,585.600464 1015.382080,581.821716 
	C1005.174194,575.403320 991.023315,577.248718 982.299805,586.062317 
	C973.362366,595.091919 972.276611,607.846497 979.965515,619.477417 
M1038.208984,581.583740 
	C1036.210693,582.388916 1034.091064,582.982117 1032.238403,584.041931 
	C1027.956421,586.491455 1028.042480,589.147583 1031.767090,592.279480 
	C1033.237183,593.515686 1034.610840,595.765869 1034.675781,597.602173 
	C1034.857056,602.730530 1034.509277,607.902283 1033.981079,613.016663 
	C1033.812500,614.649414 1032.447632,616.168457 1031.590698,617.717773 
	C1030.533691,619.628784 1028.097534,622.199158 1028.642822,623.268921 
	C1029.679932,625.303833 1032.337280,627.663696 1034.452148,627.795410 
	C1042.689331,628.308350 1050.980347,628.108521 1059.244385,627.899353 
	C1060.727051,627.861816 1062.524658,626.847839 1063.568481,625.721069 
	C1065.654785,623.468506 1066.072998,619.935608 1062.972290,619.098572 
	C1056.238892,617.280823 1056.674683,612.188293 1056.480713,607.358337 
	C1056.329956,603.607727 1056.877930,599.829041 1057.115356,596.062866 
	C1057.663208,595.983032 1058.210938,595.903259 1058.758789,595.823425 
	C1060.018066,596.831665 1061.273804,597.844360 1062.537231,598.847168 
	C1067.465088,602.758179 1073.974365,602.151428 1078.147949,597.395386 
	C1082.233765,592.739441 1081.956787,585.568237 1077.539673,581.643677 
	C1073.114014,577.711487 1066.365723,578.241028 1061.828491,582.849304 
	C1060.633423,584.062988 1059.368042,585.207458 1057.930298,586.579041 
	C1054.726807,578.399170 1054.723755,578.381653 1046.781860,579.749512 
	C1044.162964,580.200562 1041.563965,580.767517 1038.208984,581.583740 
M513.357361,613.507263 
	C512.651123,615.301514 512.119751,617.193115 511.189972,618.862915 
	C510.242615,620.564270 508.903381,622.047302 507.735748,623.625977 
	C509.761292,625.116211 511.699097,627.726135 513.828369,627.892944 
	C521.058472,628.459412 528.357971,628.254578 535.626526,628.113647 
	C536.987366,628.087280 539.017334,627.337402 539.519287,626.319946 
	C540.315552,624.705933 540.748108,621.161377 540.184692,620.898560 
	C534.508911,618.250916 535.634277,613.294434 535.724365,608.807983 
	C536.004517,594.845459 536.462952,580.886597 536.836121,566.925903 
	C536.917297,563.888550 537.039124,559.647766 533.018005,560.272888 
	C524.930542,561.530457 516.827026,563.472534 509.152618,566.284973 
	C504.982941,567.812988 505.073517,571.977722 508.812286,574.503418 
	C512.434204,576.950134 513.808594,580.287598 513.826111,584.233521 
	C513.868042,593.707581 513.636902,603.182800 513.357361,613.507263 
M501.104919,626.783997 
	C503.602722,624.911072 505.777649,622.366211 502.646881,619.917664 
	C498.601288,616.753662 498.263031,612.750061 498.253357,608.364258 
	C498.235352,600.202026 498.404205,592.033752 498.103271,583.882507 
	C498.042725,582.242004 495.908905,579.154358 495.287933,579.289734 
	C487.557007,580.974548 479.769836,582.688782 472.342834,585.357544 
	C468.720398,586.659180 469.332886,589.530579 472.093597,592.416809 
	C473.942535,594.349731 475.466858,597.159485 475.873016,599.773254 
	C476.478577,603.670227 476.375366,607.800659 475.792145,611.715393 
	C475.407196,614.299561 474.118835,617.082336 472.410767,619.066711 
	C468.875183,623.174133 469.374298,626.451172 474.778992,627.678772 
	C483.295135,629.613037 491.914001,630.045349 501.104919,626.783997 
M477.273346,575.365295 
	C482.874146,574.284241 488.623199,573.650024 493.991760,571.868896 
	C495.763336,571.281189 497.739563,567.558105 497.450836,565.586731 
	C497.172089,563.683716 494.048798,560.732361 492.253723,560.787842 
	C486.604645,560.962341 480.844269,561.847961 475.443726,563.496155 
	C473.459137,564.101868 471.081512,567.696350 471.227234,569.762146 
	C471.363739,571.697144 474.599854,573.413452 477.273346,575.365295 
z"/>
<path fill="#9CA4C4" opacity="1.000000" stroke="none" 
	d="
M281.134277,690.500366 
	C279.818146,691.936768 278.659821,693.567749 277.163239,694.781860 
	C205.925873,752.575623 97.959663,712.305969 82.410995,621.844727 
	C76.050385,584.839111 85.344131,551.494385 109.473000,522.499634 
	C110.528885,521.230835 111.800682,520.141724 113.406982,519.354614 
	C113.884361,522.068970 113.963165,524.397644 113.963554,526.726318 
	C113.970917,571.496826 114.031425,616.267517 113.872238,661.037415 
	C113.856407,665.490051 115.013786,667.901001 119.338295,669.627686 
	C136.019974,676.288269 152.495880,683.464233 169.177460,690.125183 
	C171.472794,691.041626 174.794907,690.892761 177.130646,689.958923 
	C193.037964,683.599060 208.842331,676.976257 224.596725,670.243591 
	C228.090530,668.750549 231.110641,668.761475 234.588776,670.251587 
	C248.655136,676.278015 262.823914,682.065002 276.929077,688.001831 
	C278.417633,688.628296 279.736633,689.657776 281.134277,690.500366 
z"/>
<path fill="#9CA4C4" opacity="1.000000" stroke="none" 
	d="
M121.048798,511.579468 
	C122.257889,510.248688 123.325325,508.746796 124.696358,507.611603 
	C195.395126,449.074310 304.523865,489.330322 319.985779,579.820435 
	C326.663849,618.903503 316.340210,653.349243 289.281250,682.489258 
	C288.795807,680.157593 288.697418,678.161255 288.697021,676.164917 
	C288.688141,631.033691 288.674042,585.902405 288.720795,540.771240 
	C288.724426,537.256531 288.512909,534.505493 284.449127,532.873901 
	C267.305817,525.990845 250.336868,518.673462 233.189926,511.799988 
	C231.026886,510.932922 227.909058,511.044952 225.707535,511.909821 
	C213.626801,516.655884 201.343872,521.090942 189.809021,526.965332 
	C178.407516,532.771790 168.208588,533.556152 156.605698,527.221924 
	C145.281754,521.039917 132.942398,516.718018 121.048798,511.579468 
z"/>
<path fill="#3E5195" opacity="1.000000" stroke="none" 
	d="
M120.594742,511.545380 
	C132.942398,516.718018 145.281754,521.039917 156.605698,527.221924 
	C168.208588,533.556152 178.407516,532.771790 189.809021,526.965332 
	C201.343872,521.090942 213.626801,516.655884 225.707535,511.909821 
	C227.909058,511.044952 231.026886,510.932922 233.189926,511.799988 
	C250.336868,518.673462 267.305817,525.990845 284.449127,532.873901 
	C288.512909,534.505493 288.724426,537.256531 288.720795,540.771240 
	C288.674042,585.902405 288.688141,631.033691 288.697021,676.164917 
	C288.697418,678.161255 288.795807,680.157593 288.969849,682.614868 
	C288.568787,685.565002 288.046356,688.054138 287.378265,691.237305 
	C285.770935,691.004456 283.796478,690.718445 281.478149,690.466431 
	C279.736633,689.657776 278.417633,688.628296 276.929077,688.001831 
	C262.823914,682.065002 248.655136,676.278015 234.588776,670.251587 
	C231.110641,668.761475 228.090530,668.750549 224.596725,670.243591 
	C208.842331,676.976257 193.037964,683.599060 177.130646,689.958923 
	C174.794907,690.892761 171.472794,691.041626 169.177460,690.125183 
	C152.495880,683.464233 136.019974,676.288269 119.338295,669.627686 
	C115.013786,667.901001 113.856407,665.490051 113.872238,661.037415 
	C114.031425,616.267517 113.970917,571.496826 113.963554,526.726318 
	C113.963165,524.397644 113.884361,522.068970 113.724533,519.271423 
	C113.731781,517.823425 113.925323,516.847412 113.970009,515.864685 
	C114.235214,510.031281 114.223625,510.030762 120.594742,511.545380 
M175.172363,597.425415 
	C175.172806,599.091858 174.781998,600.881775 175.260361,602.397400 
	C176.092484,605.033752 178.377960,607.509583 178.353943,610.036499 
	C178.328568,612.706970 175.360916,615.345886 175.325241,618.020508 
	C175.049576,638.680420 175.163910,659.345703 175.192307,680.009277 
	C175.194443,681.570190 175.465836,683.130737 175.665298,685.259766 
	C177.887634,684.433594 179.429230,683.917725 180.926453,683.295105 
	C194.613937,677.602722 208.232574,671.737305 222.014908,666.285339 
	C225.896301,664.749878 227.227417,662.750366 227.200317,658.598083 
	C227.023071,631.436584 227.078918,604.273376 227.143600,577.110840 
	C227.152939,573.193665 227.581818,569.395691 222.494278,568.053406 
	C221.722351,567.849731 221.381088,566.013611 220.840637,564.932617 
	C221.973862,564.578674 223.087280,564.098694 224.247467,563.916443 
	C224.985199,563.800537 225.792389,564.126587 226.620087,564.263000 
	C226.620087,548.445984 226.620087,532.939636 226.620087,516.902588 
	C224.495544,517.671875 222.937729,518.166809 221.433670,518.791321 
	C207.589813,524.539734 193.810028,530.448425 179.881897,535.984070 
	C176.110107,537.483093 175.049179,539.585266 175.090347,543.457092 
	C175.278168,561.119202 175.172729,578.784302 175.172363,597.425415 
M283.694672,539.346863 
	C282.310822,538.285583 281.074493,536.876770 279.520172,536.217163 
	C265.260406,530.166077 250.950134,524.233643 236.638718,518.304932 
	C235.355576,517.773376 233.961075,517.510742 232.310394,517.034302 
	C232.310394,533.302490 232.310394,548.913025 232.310394,563.658203 
	C234.802551,565.306458 236.699615,566.561096 238.596680,567.815735 
	C236.637634,568.948120 234.678574,570.080505 232.244232,571.487610 
	C232.214508,571.806946 232.044754,572.783752 232.044235,573.760742 
	C232.028763,602.592224 232.091293,631.424011 231.948318,660.254761 
	C231.931168,663.710083 233.714478,664.815002 236.345459,665.898560 
	C250.669281,671.797607 264.954193,677.791016 279.266113,683.719238 
	C280.434204,684.203064 281.703918,684.441711 283.782318,685.041077 
	C283.782318,636.367249 283.782318,588.283936 283.694672,539.346863 
M118.892738,586.500000 
	C118.893158,610.657532 118.963966,634.815430 118.819237,658.972107 
	C118.797150,662.658752 119.868439,664.615417 123.418900,666.035706 
	C137.486420,671.663086 151.418091,677.629639 165.412521,683.440491 
	C166.734268,683.989258 168.143051,684.328430 170.313721,685.020752 
	C170.313721,682.365356 170.313705,680.406921 170.313721,678.448425 
	C170.313782,659.622253 170.259415,640.795776 170.348557,621.970032 
	C170.373825,616.631470 171.236755,611.070129 163.671356,610.075562 
	C163.223190,610.016663 162.646469,609.663330 162.441391,609.280029 
	C161.938095,608.339600 161.617081,607.301514 161.222748,606.302795 
	C162.355728,605.955383 163.539291,605.214172 164.610001,605.351685 
	C166.267319,605.564575 167.847549,606.377441 169.742630,607.033508 
	C170.007919,605.470093 170.262878,604.665039 170.263916,603.859558 
	C170.290848,583.034302 170.378555,562.207947 170.135071,541.385620 
	C170.115036,539.671875 168.180634,537.143555 166.515076,536.417542 
	C152.321579,530.230164 137.988419,524.362793 123.683556,518.432190 
	C122.369049,517.887207 120.960358,517.569397 118.892540,516.928101 
	C118.892540,540.244934 118.892540,562.872498 118.892738,586.500000 
z"/>
<path fill="#3C4E94" opacity="1.000000" stroke="none" 
	d="
M656.709961,572.090698 
	C656.711365,584.908386 656.533752,597.244812 656.855713,609.568054 
	C656.925354,612.234314 658.330261,615.186340 659.938538,617.416504 
	C662.342590,620.750122 662.580505,623.825073 658.744141,625.019043 
	C652.484497,626.967102 645.881104,627.992004 639.346313,628.717041 
	C638.087158,628.856750 636.476624,625.828857 634.534790,623.728516 
	C622.995056,632.140381 612.094971,630.866821 603.232849,618.654724 
	C596.410034,609.252930 596.575623,597.549683 603.228455,588.344116 
	C610.322083,578.528381 618.923096,576.365540 633.976807,580.747559 
	C635.861755,577.062805 635.562195,574.283447 631.346313,572.343262 
	C630.034790,571.739563 628.201294,570.050049 628.322693,569.070129 
	C628.507263,567.579956 629.948181,565.401978 631.273743,565.037537 
	C638.285278,563.109924 645.396545,561.479553 652.558167,560.234192 
	C653.636780,560.046570 655.917908,562.220337 656.312622,563.665161 
	C656.994568,566.161560 656.633484,568.942871 656.709961,572.090698 
M624.503906,592.106262 
	C621.537964,598.563049 620.823303,605.331116 623.250549,611.947021 
	C624.031433,614.075195 626.975403,616.425537 629.155396,616.670959 
	C630.632141,616.837219 633.713989,613.664917 633.969604,611.710083 
	C634.735779,605.851013 635.094299,599.784607 634.424927,593.934937 
	C633.752563,588.059021 629.542053,587.214844 624.503906,592.106262 
z"/>
<path fill="#3B4E94" opacity="1.000000" stroke="none" 
	d="
M942.948608,617.026428 
	C948.881165,616.627502 954.368286,615.810547 959.825867,615.975037 
	C970.762268,616.304565 975.562927,625.327637 970.263794,634.958130 
	C967.185547,640.552368 962.215515,643.766296 956.365173,645.642029 
	C947.128967,648.603455 937.717590,648.785950 928.275391,646.651306 
	C926.669006,646.288147 925.091492,645.672302 923.594055,644.973083 
	C914.518616,640.735596 913.391113,633.953613 920.640137,627.470032 
	C912.263550,617.437500 915.622742,615.488525 923.449158,609.102112 
	C922.382324,607.727844 921.266235,606.364136 920.229675,604.942444 
	C914.992615,597.759766 916.021973,590.148010 923.226868,584.877014 
	C930.281494,579.715942 938.293091,577.985229 946.877502,579.567688 
	C954.046021,580.889221 961.010132,581.919678 967.373718,576.803284 
	C967.987549,576.309692 970.902588,577.513611 971.623657,578.646179 
	C972.342834,579.775818 972.270569,582.270569 971.460815,583.362976 
	C967.989502,588.045776 967.235596,593.463318 965.936951,598.900757 
	C964.602905,604.486206 959.817261,607.679810 954.526184,609.081665 
	C949.455750,610.425049 944.085938,610.600464 938.894592,611.546387 
	C937.085266,611.876099 935.415771,612.973572 933.682434,613.720337 
	C935.287292,614.837830 936.780334,616.210449 938.537476,616.980286 
	C939.651611,617.468384 941.158813,617.059143 942.948608,617.026428 
M937.172852,599.084534 
	C938.114685,601.992554 939.121521,605.380188 942.885315,604.741699 
	C944.696899,604.434509 947.342590,602.116821 947.515747,600.486938 
	C947.904907,596.824524 947.432983,592.890564 946.380981,589.343079 
	C945.955200,587.907532 942.987305,586.229675 941.383606,586.418884 
	C939.770386,586.609314 937.631958,588.753845 937.133850,590.454956 
	C936.425598,592.873169 937.006470,595.668945 937.172852,599.084534 
M948.783997,631.575684 
	C942.711853,631.575684 936.639709,631.575684 929.643677,631.575684 
	C930.448853,633.545410 930.723572,635.375977 931.755493,636.528320 
	C935.082153,640.243347 946.328613,640.891724 949.978027,637.624084 
	C952.144226,635.684509 952.899963,633.474060 948.783997,631.575684 
z"/>
<path fill="#3A4D93" opacity="1.000000" stroke="none" 
	d="
M404.783722,598.729309 
	C400.771606,606.799316 396.956543,614.550476 393.050659,622.255615 
	C391.189911,625.926270 388.934357,629.215027 384.092102,628.971924 
	C379.558167,628.744385 377.522736,625.576294 375.881073,621.963745 
	C369.214783,607.294128 362.564575,592.617249 355.884888,577.953735 
	C354.357239,574.600220 352.722565,571.605347 348.569336,570.449463 
	C345.111450,569.487122 344.750977,565.265869 347.817444,562.992004 
	C349.627411,561.649841 351.960510,560.325684 354.105804,560.244263 
	C362.530396,559.924927 371.028381,559.509888 379.393188,560.280457 
	C386.218750,560.909241 387.005096,564.465027 382.544281,569.749634 
	C381.759613,570.679199 381.211670,572.590881 381.624939,573.618408 
	C383.791199,579.004517 386.199310,584.301819 388.730927,589.529419 
	C390.294800,592.758606 392.793884,592.653381 394.352356,589.779358 
	C397.352661,584.246399 400.021393,578.510559 402.395752,572.682861 
	C402.817291,571.648315 401.487885,569.409241 400.378082,568.334351 
	C397.105957,565.165222 397.131409,562.402954 401.351044,560.886169 
	C409.225800,558.055603 417.371277,558.142700 425.337097,560.596558 
	C426.573730,560.977417 427.991913,563.357178 427.903442,564.720276 
	C427.815765,566.071533 425.997437,568.338135 424.821655,568.414734 
	C419.476166,568.763000 417.679474,572.517151 415.762024,576.494263 
	C412.226593,583.827515 408.557129,591.096069 404.783722,598.729309 
z"/>
<path fill="#3A4D93" opacity="1.000000" stroke="none" 
	d="
M702.091248,567.086304 
	C698.066650,569.935974 697.478333,572.998108 699.787598,577.071777 
	C701.828369,580.671814 703.229919,584.627930 705.075745,588.346436 
	C707.341675,592.911011 709.618530,593.167786 711.994324,588.835938 
	C714.702576,583.897827 717.070129,578.738525 719.102051,573.488159 
	C719.604492,572.189941 718.732361,569.676270 717.636047,568.568970 
	C714.134033,565.031921 714.067871,562.396362 718.482544,560.823364 
	C726.203369,558.072388 734.207214,558.212219 742.024841,560.447021 
	C743.366272,560.830505 744.830139,563.328064 744.875183,564.888184 
	C744.910278,566.105103 742.896484,568.380615 741.680176,568.460205 
	C736.551453,568.796021 734.786560,572.363037 732.914368,576.178894 
	C725.961548,590.349854 718.946716,604.490479 711.918030,618.624084 
	C710.810425,620.851257 709.699280,623.116943 708.264343,625.133240 
	C704.362061,630.616577 697.730774,630.509888 694.381653,624.655640 
	C691.586426,619.769592 689.445984,614.503540 687.099365,609.367493 
	C682.197693,598.639465 677.532593,587.797546 672.351196,577.207397 
	C671.101929,574.654114 668.524414,572.382751 666.014954,570.900757 
	C662.307922,568.711426 661.459229,565.098083 665.155273,562.777710 
	C667.597351,561.244507 670.655701,560.023071 673.487854,559.910278 
	C681.085388,559.607727 688.735168,559.646912 696.311279,560.233459 
	C699.542664,560.483704 703.655640,561.534485 702.091248,567.086304 
z"/>
<path fill="#3B4E94" opacity="1.000000" stroke="none" 
	d="
M796.184692,589.818970 
	C792.333069,586.269714 792.358826,583.336914 796.582703,581.714294 
	C805.486450,578.293823 814.785278,577.888855 823.997803,580.342529 
	C827.219299,581.200500 829.001709,583.796814 826.990723,587.343872 
	C824.166809,592.324829 827.176331,595.931580 829.960876,599.409485 
	C830.449097,600.019287 833.328186,599.842773 833.799316,599.146667 
	C836.079407,595.778503 837.563171,592.165039 835.056946,588.046753 
	C832.496521,583.839661 833.496887,580.867126 838.338867,580.166992 
	C843.155640,579.470520 848.174622,579.840637 853.065125,580.235901 
	C854.187927,580.326721 855.954834,582.418457 855.975830,583.614807 
	C856.001404,585.068176 854.812500,587.417664 853.591064,587.868774 
	C847.872375,589.980652 845.790039,594.819214 843.828369,599.788940 
	C840.109863,609.209229 836.810974,618.806458 832.784912,628.090454 
	C829.375793,635.951904 824.186523,642.806030 815.099121,644.142761 
	C810.420837,644.830933 805.262939,643.925598 800.617615,642.656921 
	C796.727478,641.594421 794.715759,637.955017 794.483337,633.757690 
	C794.249023,629.526306 797.071472,625.703064 801.031860,624.922241 
	C805.345215,624.071838 808.435425,625.503052 810.223328,629.755005 
	C811.073364,631.776733 811.291992,635.820679 814.701233,633.915771 
	C816.198181,633.079407 816.224731,629.207947 816.447021,626.673218 
	C816.549561,625.503113 815.570618,624.209167 814.995239,623.013184 
	C810.529907,613.731323 806.164673,604.397644 801.470337,595.232727 
	C800.417542,593.177307 798.190430,591.723328 796.184692,589.818970 
z"/>
<path fill="#3A4D93" opacity="1.000000" stroke="none" 
	d="
M776.667236,624.826050 
	C769.082153,628.366577 761.605469,629.966003 753.591431,628.293762 
	C744.060608,626.304993 736.909363,621.382507 734.431580,611.654602 
	C731.899292,601.712769 734.409180,592.928650 742.244873,585.921021 
	C754.105469,575.313904 774.447266,575.421326 784.449890,586.287720 
	C793.571411,596.196899 795.994019,614.245972 776.667236,624.826050 
M769.022949,611.107056 
	C767.591064,604.856812 766.413330,598.527893 764.522522,592.419739 
	C764.122742,591.128296 760.995605,589.816101 759.345093,590.052124 
	C758.040283,590.238708 755.957642,592.943420 756.144775,594.255432 
	C757.048157,600.591064 758.298645,606.924683 760.130127,613.048462 
	C760.616272,614.674011 763.531006,616.303101 765.459595,616.473755 
	C766.496399,616.565552 767.806702,613.566284 769.022949,611.107056 
z"/>
<path fill="#3B4E93" opacity="1.000000" stroke="none" 
	d="
M883.383911,626.535889 
	C878.074280,629.317261 872.897034,629.694763 867.574341,627.989014 
	C862.610535,626.398315 859.145630,623.237488 858.143555,618.003784 
	C857.099487,612.550903 858.922424,607.509949 863.661743,605.111206 
	C868.689758,602.566345 874.556458,601.701355 880.016541,599.975220 
	C882.004822,599.346558 885.559937,598.248413 885.516968,597.539185 
	C885.306946,594.071960 884.123230,590.663757 883.283813,587.234680 
	C881.226135,587.786499 878.790100,587.830261 877.202087,589.012817 
	C874.992371,590.658325 873.674316,593.476685 871.508972,595.212036 
	C868.554993,597.579285 864.951111,598.383423 862.176392,595.012695 
	C859.570801,591.847412 861.028748,588.697388 863.556946,586.109924 
	C871.229431,578.257629 889.610046,575.667175 899.095520,581.117920 
	C904.055481,583.968079 906.964844,588.192078 907.030945,594.083191 
	C907.079590,598.412231 906.874268,602.756897 907.181213,607.066223 
	C907.428894,610.544495 906.873169,614.630005 911.767761,616.021973 
	C912.277405,616.166870 912.596985,618.958435 912.138306,620.202454 
	C909.540771,627.248169 896.583679,632.807312 890.557556,625.788086 
	C887.838196,622.620544 885.904785,625.183350 883.383911,626.535889 
M885.990845,614.075867 
	C885.663452,611.551147 887.673584,607.670166 883.439514,607.330017 
	C881.833923,607.201050 879.119568,609.853760 878.507996,611.753052 
	C877.990540,613.359741 879.211975,616.484802 880.674805,617.551697 
	C883.011475,619.255859 884.977234,617.528870 885.990845,614.075867 
z"/>
<path fill="#3B4E93" opacity="1.000000" stroke="none" 
	d="
M544.268616,601.489136 
	C548.176208,583.152710 564.941711,573.544800 581.228760,579.919128 
	C589.199097,583.038513 595.101685,591.166077 595.061584,598.966187 
	C595.034973,604.159668 593.411255,605.926147 588.262146,605.982727 
	C580.958801,606.063049 573.653870,606.003113 566.391602,606.003113 
	C565.809814,611.507385 570.661255,615.972961 576.952209,615.481934 
	C580.006592,615.243408 582.927368,613.609375 585.988098,613.019165 
	C587.831604,612.663696 591.281250,612.630554 591.487732,613.268555 
	C592.153320,615.325256 592.540649,618.396423 591.440308,619.938293 
	C586.952454,626.227051 579.902588,628.172241 572.687988,628.845764 
	C555.971863,630.406067 543.797302,618.728394 544.268616,601.489136 
M568.423401,587.625854 
	C567.820068,588.189270 566.836548,588.665649 566.683899,589.332275 
	C566.203186,591.431702 566.034424,593.602539 565.744873,595.745728 
	C568.629028,596.005127 571.535400,596.551331 574.382202,596.330078 
	C575.129456,596.272034 576.579407,593.375671 576.167297,592.580139 
	C575.076294,590.473938 573.224487,588.719971 571.480347,587.026855 
	C571.102600,586.660217 569.907104,587.135925 568.423401,587.625854 
z"/>
<path fill="#3B4E93" opacity="1.000000" stroke="none" 
	d="
M447.310242,628.596069 
	C429.773712,630.149231 417.914490,621.228333 416.521088,605.860718 
	C415.527832,594.906250 422.786926,583.939148 433.713837,579.885681 
	C445.113342,575.656982 456.926880,578.690674 463.273926,587.632202 
	C464.599701,589.499878 465.705994,591.629639 466.429077,593.800049 
	C469.324799,602.491943 466.778839,605.999878 457.790222,606.005127 
	C451.320190,606.008911 444.850128,606.005859 438.398315,606.005859 
	C438.222382,611.713196 443.073059,615.997559 449.320770,615.489258 
	C452.218140,615.253540 454.985748,613.699036 457.890350,613.179932 
	C459.881470,612.824158 462.007446,613.222900 464.073151,613.284363 
	C463.965485,615.585938 464.701721,618.463074 463.596130,620.084045 
	C459.896301,625.508667 453.818237,627.164429 447.310242,628.596069 
M445.860321,596.716309 
	C449.679413,595.715637 449.550323,592.712463 447.933716,590.554810 
	C446.637238,588.824463 443.122406,586.810425 441.855469,587.445007 
	C439.786438,588.481262 438.745941,591.571167 437.271545,593.794617 
	C439.032928,594.808411 440.746887,595.923340 442.580536,596.782959 
	C443.255188,597.099182 444.212555,596.812256 445.860321,596.716309 
z"/>
<path fill="#3B4E93" opacity="1.000000" stroke="none" 
	d="
M979.734375,619.196411 
	C972.276611,607.846497 973.362366,595.091919 982.299805,586.062317 
	C991.023315,577.248718 1005.174194,575.403320 1015.382080,581.821716 
	C1021.391785,585.600464 1024.878418,591.077698 1025.582642,598.146973 
	C1026.127319,603.615356 1024.008057,605.931519 1018.586182,605.985535 
	C1011.276794,606.058350 1003.966125,606.003540 996.685181,606.003540 
	C996.340271,611.756470 1001.552124,616.163025 1007.974792,615.462036 
	C1010.875122,615.145569 1013.624817,613.626465 1016.516785,612.987793 
	C1018.258728,612.603149 1021.348755,612.234802 1021.724976,612.957092 
	C1022.651123,614.735352 1022.812500,617.239685 1022.400696,619.273682 
	C1022.117310,620.673340 1020.510254,621.962769 1019.237793,622.979919 
	C1007.582703,632.296143 990.015747,630.698242 979.734375,619.196411 
M1000.690674,596.838074 
	C1001.187683,596.834229 1001.684631,596.832520 1002.181641,596.826233 
	C1004.895996,596.792053 1007.824219,596.207581 1006.771301,592.823303 
	C1006.071533,590.573669 1003.845398,587.694214 1001.801270,587.209290 
	C998.123535,586.336853 996.346008,589.450256 995.750061,592.867004 
	C995.177307,596.150635 997.192017,596.876282 1000.690674,596.838074 
z"/>
<path fill="#3B4E93" opacity="1.000000" stroke="none" 
	d="
M1038.582520,581.432617 
	C1041.563965,580.767517 1044.162964,580.200562 1046.781860,579.749512 
	C1054.723755,578.381653 1054.726807,578.399170 1057.930298,586.579041 
	C1059.368042,585.207458 1060.633423,584.062988 1061.828491,582.849304 
	C1066.365723,578.241028 1073.114014,577.711487 1077.539673,581.643677 
	C1081.956787,585.568237 1082.233765,592.739441 1078.147949,597.395386 
	C1073.974365,602.151428 1067.465088,602.758179 1062.537231,598.847168 
	C1061.273804,597.844360 1060.018066,596.831665 1058.758789,595.823425 
	C1058.210938,595.903259 1057.663208,595.983032 1057.115356,596.062866 
	C1056.877930,599.829041 1056.329956,603.607727 1056.480713,607.358337 
	C1056.674683,612.188293 1056.238892,617.280823 1062.972290,619.098572 
	C1066.072998,619.935608 1065.654785,623.468506 1063.568481,625.721069 
	C1062.524658,626.847839 1060.727051,627.861816 1059.244385,627.899353 
	C1050.980347,628.108521 1042.689331,628.308350 1034.452148,627.795410 
	C1032.337280,627.663696 1029.679932,625.303833 1028.642822,623.268921 
	C1028.097534,622.199158 1030.533691,619.628784 1031.590698,617.717773 
	C1032.447632,616.168457 1033.812500,614.649414 1033.981079,613.016663 
	C1034.509277,607.902283 1034.857056,602.730530 1034.675781,597.602173 
	C1034.610840,595.765869 1033.237183,593.515686 1031.767090,592.279480 
	C1028.042480,589.147583 1027.956421,586.491455 1032.238403,584.041931 
	C1034.091064,582.982117 1036.210693,582.388916 1038.582520,581.432617 
z"/>
<path fill="#3B4E94" opacity="1.000000" stroke="none" 
	d="
M513.436646,613.082397 
	C513.636902,603.182800 513.868042,593.707581 513.826111,584.233521 
	C513.808594,580.287598 512.434204,576.950134 508.812286,574.503418 
	C505.073517,571.977722 504.982941,567.812988 509.152618,566.284973 
	C516.827026,563.472534 524.930542,561.530457 533.018005,560.272888 
	C537.039124,559.647766 536.917297,563.888550 536.836121,566.925903 
	C536.462952,580.886597 536.004517,594.845459 535.724365,608.807983 
	C535.634277,613.294434 534.508911,618.250916 540.184692,620.898560 
	C540.748108,621.161377 540.315552,624.705933 539.519287,626.319946 
	C539.017334,627.337402 536.987366,628.087280 535.626526,628.113647 
	C528.357971,628.254578 521.058472,628.459412 513.828369,627.892944 
	C511.699097,627.726135 509.761292,625.116211 507.735748,623.625977 
	C508.903381,622.047302 510.242615,620.564270 511.189972,618.862915 
	C512.119751,617.193115 512.651123,615.301514 513.436646,613.082397 
z"/>
<path fill="#3A4D93" opacity="1.000000" stroke="none" 
	d="
M500.745667,626.945068 
	C491.914001,630.045349 483.295135,629.613037 474.778992,627.678772 
	C469.374298,626.451172 468.875183,623.174133 472.410767,619.066711 
	C474.118835,617.082336 475.407196,614.299561 475.792145,611.715393 
	C476.375366,607.800659 476.478577,603.670227 475.873016,599.773254 
	C475.466858,597.159485 473.942535,594.349731 472.093597,592.416809 
	C469.332886,589.530579 468.720398,586.659180 472.342834,585.357544 
	C479.769836,582.688782 487.557007,580.974548 495.287933,579.289734 
	C495.908905,579.154358 498.042725,582.242004 498.103271,583.882507 
	C498.404205,592.033752 498.235352,600.202026 498.253357,608.364258 
	C498.263031,612.750061 498.601288,616.753662 502.646881,619.917664 
	C505.777649,622.366211 503.602722,624.911072 500.745667,626.945068 
z"/>
<path fill="#3E5095" opacity="1.000000" stroke="none" 
	d="
M476.872620,575.295654 
	C474.599854,573.413452 471.363739,571.697144 471.227234,569.762146 
	C471.081512,567.696350 473.459137,564.101868 475.443726,563.496155 
	C480.844269,561.847961 486.604645,560.962341 492.253723,560.787842 
	C494.048798,560.732361 497.172089,563.683716 497.450836,565.586731 
	C497.739563,567.558105 495.763336,571.281189 493.991760,571.868896 
	C488.623199,573.650024 482.874146,574.284241 476.872620,575.295654 
z"/>
<path fill="#9BA3C3" opacity="1.000000" stroke="none" 
	d="
M175.172531,596.936890 
	C175.172729,578.784302 175.278168,561.119202 175.090347,543.457092 
	C175.049179,539.585266 176.110107,537.483093 179.881897,535.984070 
	C193.810028,530.448425 207.589813,524.539734 221.433670,518.791321 
	C222.937729,518.166809 224.495544,517.671875 226.620087,516.902588 
	C226.620087,532.939636 226.620087,548.445984 226.620087,564.263000 
	C225.792389,564.126587 224.985199,563.800537 224.247467,563.916443 
	C223.087280,564.098694 221.973862,564.578674 220.840637,564.932617 
	C221.381088,566.013611 221.722351,567.849731 222.494278,568.053406 
	C227.581818,569.395691 227.152939,573.193665 227.143600,577.110840 
	C227.078918,604.273376 227.023071,631.436584 227.200317,658.598083 
	C227.227417,662.750366 225.896301,664.749878 222.014908,666.285339 
	C208.232574,671.737305 194.613937,677.602722 180.926453,683.295105 
	C179.429230,683.917725 177.887634,684.433594 175.665298,685.259766 
	C175.465836,683.130737 175.194443,681.570190 175.192307,680.009277 
	C175.163910,659.345703 175.049576,638.680420 175.325241,618.020508 
	C175.360916,615.345886 178.328568,612.706970 178.353943,610.036499 
	C178.377960,607.509583 176.092484,605.033752 175.260361,602.397400 
	C174.781998,600.881775 175.172806,599.091858 175.172531,596.936890 
M197.792999,598.388489 
	C199.634094,596.795349 201.475174,595.202209 203.468796,593.477051 
	C205.385956,595.214844 206.837631,596.866028 208.619568,597.996643 
	C209.441223,598.518066 210.908752,598.021545 212.083420,597.986633 
	C212.024475,596.930664 212.349655,595.601929 211.831421,594.872070 
	C210.507843,593.008057 208.808258,591.411072 207.091949,589.523376 
	C208.648270,587.892029 210.243637,586.606506 211.299164,584.972290 
	C211.961090,583.947449 211.811783,582.398682 212.026474,581.084900 
	C210.714401,581.228149 209.141159,580.965515 208.148071,581.604553 
	C206.419525,582.716919 205.048843,584.385437 203.406769,585.935364 
	C201.578949,584.218933 200.285492,582.619507 198.634857,581.596252 
	C197.619034,580.966492 196.057556,581.216858 194.741089,581.072083 
	C194.962936,582.389832 194.832977,583.927673 195.487915,584.974426 
	C196.506439,586.602295 198.058716,587.896240 199.589493,589.553345 
	C197.889297,591.448364 196.301758,592.917358 195.084732,594.647095 
	C193.399506,597.042175 193.732910,598.741150 197.792999,598.388489 
M204.757721,610.269409 
	C202.280029,607.771301 200.752548,609.081055 200.520050,611.772278 
	C200.166840,615.860352 200.227951,620.010254 200.496262,624.108765 
	C200.567062,625.189941 202.044556,626.178955 202.876099,627.210327 
	C203.632309,626.125549 204.982651,625.070862 205.039276,623.950806 
	C205.255020,619.682434 205.053482,615.393005 204.757721,610.269409 
M206.103134,548.721741 
	C206.619598,549.457458 207.154221,550.841614 207.649673,550.827698 
	C212.145859,550.701843 214.815475,552.481140 215.471817,557.147156 
	C215.549820,557.701660 217.831375,558.613586 218.101242,558.349121 
	C218.929108,557.537964 219.730728,556.236206 219.733688,555.123047 
	C219.751587,548.383240 212.221542,544.429199 206.103134,548.721741 
M185.102005,626.480774 
	C185.146088,627.798523 184.933990,629.197571 185.317810,630.407532 
	C185.608994,631.325378 186.615952,632.568481 187.383759,632.627075 
	C188.146179,632.685303 189.774719,631.349304 189.705429,630.787170 
	C189.112335,625.976746 188.323837,621.180298 187.279617,616.448975 
	C187.154175,615.880493 185.155518,615.725525 184.025101,615.378906 
	C183.781998,616.411438 183.203262,617.499146 183.361923,618.465698 
	C183.757584,620.875854 184.488602,623.231018 185.102005,626.480774 
M198.291489,638.090942 
	C196.239166,638.242188 194.171921,638.291260 192.140884,638.588013 
	C191.132736,638.735352 189.631775,639.120789 189.370789,639.793274 
	C189.088882,640.519592 189.866302,642.474854 190.402802,642.564087 
	C193.199722,643.029297 196.431000,643.969788 198.807755,643.007568 
	C201.188461,642.043701 202.827728,639.100098 204.566879,636.850281 
	C204.846649,636.488403 204.169403,634.839600 203.537323,634.475708 
	C202.921432,634.121155 201.587692,634.375549 200.945114,634.860657 
	C200.067825,635.523010 199.546539,636.656860 198.291489,638.090942 
M200.975235,565.502136 
	C200.985931,567.317932 200.702515,569.203430 201.110321,570.925171 
	C201.383698,572.079407 202.637527,573.001343 203.452637,574.027222 
	C204.230118,573.109375 205.619461,572.229309 205.678909,571.267151 
	C205.932785,567.157776 205.934677,563.015930 205.695374,558.905334 
	C205.638519,557.928589 204.294449,557.026733 203.542450,556.090454 
	C202.702087,557.097656 201.409775,557.993469 201.127365,559.138306 
	C200.704315,560.853516 200.990601,562.743591 200.975235,565.502136 
z"/>
<path fill="#9BA3C3" opacity="1.000000" stroke="none" 
	d="
M283.738495,539.773743 
	C283.782318,588.283936 283.782318,636.367249 283.782318,685.041077 
	C281.703918,684.441711 280.434204,684.203064 279.266113,683.719238 
	C264.954193,677.791016 250.669281,671.797607 236.345459,665.898560 
	C233.714478,664.815002 231.931168,663.710083 231.948318,660.254761 
	C232.091293,631.424011 232.028763,602.592224 232.044235,573.760742 
	C232.044754,572.783752 232.214508,571.806946 232.244232,571.487610 
	C234.678574,570.080505 236.637634,568.948120 238.596680,567.815735 
	C236.699615,566.561096 234.802551,565.306458 232.310394,563.658203 
	C232.310394,548.913025 232.310394,533.302490 232.310394,517.034302 
	C233.961075,517.510742 235.355576,517.773376 236.638718,518.304932 
	C250.950134,524.233643 265.260406,530.166077 279.520172,536.217163 
	C281.074493,536.876770 282.310822,538.285583 283.738495,539.773743 
M269.584442,640.624695 
	C263.025940,637.833191 257.957642,638.725891 254.294189,643.317688 
	C250.994293,647.453857 250.917099,653.526428 254.111542,657.691711 
	C258.308472,663.164185 266.353760,663.907593 271.341583,659.283875 
	C276.795319,654.228271 276.345062,646.805359 269.584442,640.624695 
M247.556244,565.562805 
	C246.910233,566.536255 246.264206,567.509705 245.618210,568.483154 
	C246.577545,568.988647 247.487244,569.759033 248.505554,569.949768 
	C251.539444,570.518188 254.612061,570.890076 257.677490,571.275696 
	C259.328064,571.483337 260.994904,571.562073 262.654388,571.698914 
	C261.756561,570.104126 261.153198,567.462036 259.905609,567.111328 
	C256.187500,566.065918 252.216446,565.920105 247.556244,565.562805 
M263.534149,582.244568 
	C262.419830,581.412659 261.305542,580.580811 260.191223,579.748901 
	C257.593903,583.701416 253.459335,583.154419 249.566162,583.577881 
	C248.666351,583.675720 247.917633,585.162964 247.099380,586.010803 
	C247.896530,586.692932 248.593048,587.750671 249.507324,587.995605 
	C255.080185,589.488403 259.791504,587.667847 263.534149,582.244568 
M248.027420,602.049438 
	C244.561172,599.893860 242.369614,597.148865 242.949997,592.683716 
	C243.072632,591.740051 241.828278,590.618774 241.213745,589.579285 
	C240.350067,590.192627 239.076035,590.616882 238.691666,591.451111 
	C236.715591,595.740051 239.486755,602.935608 243.745651,604.750061 
	C245.882706,605.660583 248.115463,606.268311 248.027420,602.049438 
M260.623932,616.002441 
	C261.762726,617.292664 262.901520,618.582886 264.040314,619.873108 
	C264.453186,618.161194 265.704498,616.053650 265.119019,614.812805 
	C263.474609,611.327698 261.219971,608.086365 258.851410,605.023010 
	C258.354492,604.380310 256.339935,604.910950 255.024689,604.900879 
	C255.272202,606.060425 255.255875,607.372192 255.819504,608.349426 
	C257.198700,610.740845 258.845825,612.977661 260.623932,616.002441 
M265.865082,630.688110 
	C265.667786,628.596436 265.044617,625.876099 262.594116,627.637817 
	C261.222931,628.623535 261.399963,632.033813 261.318695,634.366943 
	C261.296234,635.012817 262.847168,635.713501 263.676178,636.389038 
	C264.410614,634.757019 265.145050,633.125000 265.865082,630.688110 
z"/>
<path fill="#9BA4C4" opacity="1.000000" stroke="none" 
	d="
M118.892639,586.000000 
	C118.892540,562.872498 118.892540,540.244934 118.892540,516.928101 
	C120.960358,517.569397 122.369049,517.887207 123.683556,518.432190 
	C137.988419,524.362793 152.321579,530.230164 166.515076,536.417542 
	C168.180634,537.143555 170.115036,539.671875 170.135071,541.385620 
	C170.378555,562.207947 170.290848,583.034302 170.263916,603.859558 
	C170.262878,604.665039 170.007919,605.470093 169.742630,607.033508 
	C167.847549,606.377441 166.267319,605.564575 164.610001,605.351685 
	C163.539291,605.214172 162.355728,605.955383 161.222748,606.302734 
	C161.617081,607.301514 161.938095,608.339600 162.441391,609.280029 
	C162.646469,609.663330 163.223190,610.016663 163.671356,610.075562 
	C171.236755,611.070129 170.373825,616.631470 170.348557,621.970032 
	C170.259415,640.795776 170.313782,659.622253 170.313721,678.448425 
	C170.313705,680.406921 170.313721,682.365356 170.313721,685.020752 
	C168.143051,684.328430 166.734268,683.989258 165.412521,683.440491 
	C151.418091,677.629639 137.486420,671.663086 123.418900,666.035706 
	C119.868439,664.615417 118.797150,662.658752 118.819237,658.972107 
	C118.963966,634.815430 118.893158,610.657532 118.892639,586.000000 
M154.434341,621.153564 
	C153.320541,616.162903 150.393494,612.855957 145.342148,611.734009 
	C140.930603,610.754211 137.130661,612.092163 134.118759,615.415527 
	C130.553833,619.349182 130.095642,624.808960 132.816528,629.234680 
	C135.548843,633.678955 140.774017,635.858459 145.670029,634.595947 
	C151.319611,633.139221 154.392746,628.768738 154.434341,621.153564 
M140.307816,600.096741 
	C141.250443,601.696289 142.193085,603.295898 143.135712,604.895447 
	C143.817307,603.250305 144.889160,601.651672 145.091812,599.949524 
	C145.420639,597.187134 145.437683,594.323669 145.082855,591.567749 
	C144.869705,589.912170 143.701447,588.379517 142.962418,586.791626 
	C142.079849,588.291809 140.697815,589.708191 140.428833,591.311340 
	C139.998413,593.876587 140.306442,596.565674 140.307816,600.096741 
M155.467087,572.075867 
	C149.626755,568.358765 142.829010,570.043457 141.314285,575.746033 
	C141.008514,576.897156 141.851212,578.353394 142.164413,579.668884 
	C143.216080,579.151978 144.774811,578.909729 145.229874,578.069641 
	C147.009995,574.783447 149.389709,574.398376 152.728043,575.370300 
	C153.454269,575.581665 154.793945,573.685913 155.467087,572.075867 
M154.117737,593.181702 
	C154.238800,594.328064 154.050201,595.641846 154.557220,596.579529 
	C155.230896,597.825500 156.446960,598.778198 157.429977,599.856934 
	C157.992599,598.655334 158.976044,597.475220 159.038589,596.248169 
	C159.223007,592.630005 159.208344,588.979553 158.910583,585.371582 
	C158.813309,584.192871 157.607605,583.105652 156.908844,581.976562 
	C155.992706,583.101257 154.531754,584.117004 154.280380,585.374573 
	C153.835785,587.598877 154.127151,589.970276 154.117737,593.181702 
z"/>
<path fill="#F5F6ED" opacity="1.000000" stroke="none" 
	d="
M624.722351,591.776855 
	C629.542053,587.214844 633.752563,588.059021 634.424927,593.934937 
	C635.094299,599.784607 634.735779,605.851013 633.969604,611.710083 
	C633.713989,613.664917 630.632141,616.837219 629.155396,616.670959 
	C626.975403,616.425537 624.031433,614.075195 623.250549,611.947021 
	C620.823303,605.331116 621.537964,598.563049 624.722351,591.776855 
z"/>
<path fill="#F5F6ED" opacity="1.000000" stroke="none" 
	d="
M937.104675,598.693970 
	C937.006470,595.668945 936.425598,592.873169 937.133850,590.454956 
	C937.631958,588.753845 939.770386,586.609314 941.383606,586.418884 
	C942.987305,586.229675 945.955200,587.907532 946.380981,589.343079 
	C947.432983,592.890564 947.904907,596.824524 947.515747,600.486938 
	C947.342590,602.116821 944.696899,604.434509 942.885315,604.741699 
	C939.121521,605.380188 938.114685,601.992554 937.104675,598.693970 
z"/>
<path fill="#F1F2EB" opacity="1.000000" stroke="none" 
	d="
M949.155640,631.676147 
	C952.899963,633.474060 952.144226,635.684509 949.978027,637.624084 
	C946.328613,640.891724 935.082153,640.243347 931.755493,636.528320 
	C930.723572,635.375977 930.448853,633.545410 929.643677,631.575684 
	C936.639709,631.575684 942.711853,631.575684 949.155640,631.676147 
z"/>
<path fill="#F5F6ED" opacity="1.000000" stroke="none" 
	d="
M769.008301,611.534424 
	C767.806702,613.566284 766.496399,616.565552 765.459595,616.473755 
	C763.531006,616.303101 760.616272,614.674011 760.130127,613.048462 
	C758.298645,606.924683 757.048157,600.591064 756.144775,594.255432 
	C755.957642,592.943420 758.040283,590.238708 759.345093,590.052124 
	C760.995605,589.816101 764.122742,591.128296 764.522522,592.419739 
	C766.413330,598.527893 767.591064,604.856812 769.008301,611.534424 
z"/>
<path fill="#F1F2EB" opacity="1.000000" stroke="none" 
	d="
M885.925476,614.494385 
	C884.977234,617.528870 883.011475,619.255859 880.674805,617.551697 
	C879.211975,616.484802 877.990540,613.359741 878.507996,611.753052 
	C879.119568,609.853760 881.833923,607.201050 883.439514,607.330017 
	C887.673584,607.670166 885.663452,611.551147 885.925476,614.494385 
z"/>
<path fill="#F1F2EB" opacity="1.000000" stroke="none" 
	d="
M568.755859,587.424744 
	C569.907104,587.135925 571.102600,586.660217 571.480347,587.026855 
	C573.224487,588.719971 575.076294,590.473938 576.167297,592.580139 
	C576.579407,593.375671 575.129456,596.272034 574.382202,596.330078 
	C571.535400,596.551331 568.629028,596.005127 565.744873,595.745728 
	C566.034424,593.602539 566.203186,591.431702 566.683899,589.332275 
	C566.836548,588.665649 567.820068,588.189270 568.755859,587.424744 
z"/>
<path fill="#F1F2EB" opacity="1.000000" stroke="none" 
	d="
M445.450653,596.758423 
	C444.212555,596.812256 443.255188,597.099182 442.580536,596.782959 
	C440.746887,595.923340 439.032928,594.808411 437.271545,593.794617 
	C438.745941,591.571167 439.786438,588.481262 441.855469,587.445007 
	C443.122406,586.810425 446.637238,588.824463 447.933716,590.554810 
	C449.550323,592.712463 449.679413,595.715637 445.450653,596.758423 
z"/>
<path fill="#F1F2EB" opacity="1.000000" stroke="none" 
	d="
M1000.285034,596.839111 
	C997.192017,596.876282 995.177307,596.150635 995.750061,592.867004 
	C996.346008,589.450256 998.123535,586.336853 1001.801270,587.209290 
	C1003.845398,587.694214 1006.071533,590.573669 1006.771301,592.823303 
	C1007.824219,596.207581 1004.895996,596.792053 1002.181641,596.826233 
	C1001.684631,596.832520 1001.187683,596.834229 1000.285034,596.839111 
z"/>
<path fill="#3E5195" opacity="1.000000" stroke="none" 
	d="
M197.469360,598.552063 
	C193.732910,598.741150 193.399506,597.042175 195.084732,594.647095 
	C196.301758,592.917358 197.889297,591.448364 199.589493,589.553345 
	C198.058716,587.896240 196.506439,586.602295 195.487915,584.974426 
	C194.832977,583.927673 194.962936,582.389832 194.741089,581.072083 
	C196.057556,581.216858 197.619034,580.966492 198.634857,581.596252 
	C200.285492,582.619507 201.578949,584.218933 203.406769,585.935364 
	C205.048843,584.385437 206.419525,582.716919 208.148071,581.604553 
	C209.141159,580.965515 210.714401,581.228149 212.026474,581.084961 
	C211.811783,582.398682 211.961090,583.947449 211.299164,584.972290 
	C210.243637,586.606506 208.648270,587.892029 207.091949,589.523376 
	C208.808258,591.411072 210.507843,593.008057 211.831421,594.872070 
	C212.349655,595.601929 212.024475,596.930664 212.083420,597.986633 
	C210.908752,598.021545 209.441223,598.518066 208.619568,597.996643 
	C206.837631,596.866028 205.385956,595.214844 203.468796,593.477051 
	C201.475174,595.202209 199.634094,596.795349 197.469360,598.552063 
z"/>
<path fill="#405296" opacity="1.000000" stroke="none" 
	d="
M204.882782,610.690430 
	C205.053482,615.393005 205.255020,619.682434 205.039276,623.950806 
	C204.982651,625.070862 203.632309,626.125549 202.876099,627.210327 
	C202.044556,626.178955 200.567062,625.189941 200.496262,624.108765 
	C200.227951,620.010254 200.166840,615.860352 200.520050,611.772278 
	C200.752548,609.081055 202.280029,607.771301 204.882782,610.690430 
z"/>
<path fill="#405296" opacity="1.000000" stroke="none" 
	d="
M206.217926,548.348938 
	C212.221542,544.429199 219.751587,548.383240 219.733688,555.123047 
	C219.730728,556.236206 218.929108,557.537964 218.101242,558.349121 
	C217.831375,558.613586 215.549820,557.701660 215.471817,557.147156 
	C214.815475,552.481140 212.145859,550.701843 207.649673,550.827698 
	C207.154221,550.841614 206.619598,549.457458 206.217926,548.348938 
z"/>
<path fill="#3E5195" opacity="1.000000" stroke="none" 
	d="
M185.093506,626.044495 
	C184.488602,623.231018 183.757584,620.875854 183.361923,618.465698 
	C183.203262,617.499146 183.781998,616.411438 184.025101,615.378906 
	C185.155518,615.725525 187.154175,615.880493 187.279617,616.448975 
	C188.323837,621.180298 189.112335,625.976746 189.705429,630.787170 
	C189.774719,631.349304 188.146179,632.685303 187.383759,632.627075 
	C186.615952,632.568481 185.608994,631.325378 185.317810,630.407532 
	C184.933990,629.197571 185.146088,627.798523 185.093506,626.044495 
z"/>
<path fill="#3E5095" opacity="1.000000" stroke="none" 
	d="
M198.582062,637.839722 
	C199.546539,636.656860 200.067825,635.523010 200.945114,634.860657 
	C201.587692,634.375549 202.921432,634.121155 203.537323,634.475708 
	C204.169403,634.839600 204.846649,636.488403 204.566879,636.850281 
	C202.827728,639.100098 201.188461,642.043701 198.807755,643.007568 
	C196.431000,643.969788 193.199722,643.029297 190.402802,642.564087 
	C189.866302,642.474854 189.088882,640.519592 189.370789,639.793274 
	C189.631775,639.120789 191.132736,638.735352 192.140884,638.588013 
	C194.171921,638.291260 196.239166,638.242188 198.582062,637.839722 
z"/>
<path fill="#3E5195" opacity="1.000000" stroke="none" 
	d="
M200.975220,565.030762 
	C200.990601,562.743591 200.704315,560.853516 201.127365,559.138306 
	C201.409775,557.993469 202.702087,557.097656 203.542465,556.090454 
	C204.294449,557.026733 205.638519,557.928589 205.695374,558.905334 
	C205.934677,563.015930 205.932785,567.157776 205.678909,571.267151 
	C205.619461,572.229309 204.230118,573.109375 203.452637,574.027222 
	C202.637527,573.001343 201.383698,572.079407 201.110321,570.925171 
	C200.702515,569.203430 200.985931,567.317932 200.975220,565.030762 
z"/>
<path fill="#3E5095" opacity="1.000000" stroke="none" 
	d="
M269.909851,640.833984 
	C276.345062,646.805359 276.795319,654.228271 271.341583,659.283875 
	C266.353760,663.907593 258.308472,663.164185 254.111542,657.691711 
	C250.917099,653.526428 250.994293,647.453857 254.294189,643.317688 
	C257.957642,638.725891 263.025940,637.833191 269.909851,640.833984 
M257.090698,648.078003 
	C256.242798,651.626892 256.528534,655.173523 260.236633,656.542358 
	C262.375366,657.331848 265.846344,657.196838 267.483917,655.909058 
	C269.142212,654.605042 270.092255,651.271423 269.824280,649.007629 
	C269.613617,647.228271 267.367249,645.025879 265.508789,644.252808 
	C262.283600,642.911255 259.323395,644.218567 257.090698,648.078003 
z"/>
<path fill="#405296" opacity="1.000000" stroke="none" 
	d="
M247.950226,565.492798 
	C252.216446,565.920105 256.187500,566.065918 259.905609,567.111328 
	C261.153198,567.462036 261.756561,570.104126 262.654388,571.698914 
	C260.994904,571.562073 259.328064,571.483337 257.677490,571.275696 
	C254.612061,570.890076 251.539444,570.518188 248.505554,569.949768 
	C247.487244,569.759033 246.577545,568.988647 245.618195,568.483154 
	C246.264206,567.509705 246.910233,566.536255 247.950226,565.492798 
z"/>
<path fill="#405296" opacity="1.000000" stroke="none" 
	d="
M263.399414,582.570557 
	C259.791504,587.667847 255.080185,589.488403 249.507324,587.995605 
	C248.593048,587.750671 247.896530,586.692932 247.099396,586.010803 
	C247.917633,585.162964 248.666351,583.675720 249.566162,583.577881 
	C253.459335,583.154419 257.593903,583.701416 260.191223,579.748901 
	C261.305542,580.580811 262.419830,581.412659 263.399414,582.570557 
z"/>
<path fill="#405296" opacity="1.000000" stroke="none" 
	d="
M248.148712,602.353149 
	C248.115463,606.268311 245.882706,605.660583 243.745651,604.750061 
	C239.486755,602.935608 236.715591,595.740051 238.691666,591.451111 
	C239.076035,590.616882 240.350067,590.192627 241.213760,589.579346 
	C241.828278,590.618774 243.072632,591.740051 242.949997,592.683716 
	C242.369614,597.148865 244.561172,599.893860 248.148712,602.353149 
z"/>
<path fill="#3E5095" opacity="1.000000" stroke="none" 
	d="
M260.504517,615.639587 
	C258.845825,612.977661 257.198700,610.740845 255.819504,608.349426 
	C255.255875,607.372192 255.272202,606.060425 255.024689,604.900879 
	C256.339935,604.910950 258.354492,604.380310 258.851410,605.023010 
	C261.219971,608.086365 263.474609,611.327698 265.119019,614.812805 
	C265.704498,616.053650 264.453186,618.161194 264.040314,619.873108 
	C262.901520,618.582886 261.762726,617.292664 260.504517,615.639587 
z"/>
<path fill="#3E5195" opacity="1.000000" stroke="none" 
	d="
M265.872284,631.090576 
	C265.145050,633.125000 264.410614,634.757019 263.676208,636.389038 
	C262.847168,635.713501 261.296234,635.012817 261.318695,634.366943 
	C261.399963,632.033813 261.222931,628.623535 262.594116,627.637817 
	C265.044617,625.876099 265.667786,628.596436 265.872284,631.090576 
z"/>
<path fill="#3E5095" opacity="1.000000" stroke="none" 
	d="
M154.509613,621.535645 
	C154.392746,628.768738 151.319611,633.139221 145.670029,634.595947 
	C140.774017,635.858459 135.548843,633.678955 132.816528,629.234680 
	C130.095642,624.808960 130.553833,619.349182 134.118759,615.415527 
	C137.130661,612.092163 140.930603,610.754211 145.342148,611.734009 
	C150.393494,612.855957 153.320541,616.162903 154.509613,621.535645 
M149.229538,620.491882 
	C147.524445,617.105225 144.803345,615.412048 141.101501,616.527283 
	C137.296555,617.673645 135.312714,620.504883 136.147232,624.543030 
	C136.974655,628.546936 139.780609,630.383972 143.820679,629.968567 
	C147.893204,629.549744 149.923767,626.293823 149.229538,620.491882 
z"/>
<path fill="#405296" opacity="1.000000" stroke="none" 
	d="
M140.305054,599.649597 
	C140.306442,596.565674 139.998413,593.876587 140.428833,591.311340 
	C140.697815,589.708191 142.079849,588.291809 142.962418,586.791626 
	C143.701447,588.379517 144.869705,589.912170 145.082855,591.567749 
	C145.437683,594.323669 145.420639,597.187134 145.091812,599.949524 
	C144.889160,601.651672 143.817307,603.250305 143.135712,604.895447 
	C142.193085,603.295898 141.250443,601.696289 140.305054,599.649597 
z"/>
<path fill="#3E5195" opacity="1.000000" stroke="none" 
	d="
M155.659088,572.418274 
	C154.793945,573.685913 153.454269,575.581665 152.728043,575.370300 
	C149.389709,574.398376 147.009995,574.783447 145.229874,578.069641 
	C144.774811,578.909729 143.216080,579.151978 142.164429,579.668945 
	C141.851212,578.353394 141.008514,576.897156 141.314285,575.746033 
	C142.829010,570.043457 149.626755,568.358765 155.659088,572.418274 
z"/>
<path fill="#3E5195" opacity="1.000000" stroke="none" 
	d="
M154.114120,592.730957 
	C154.127151,589.970276 153.835785,587.598877 154.280380,585.374573 
	C154.531754,584.117004 155.992706,583.101257 156.908844,581.976562 
	C157.607605,583.105652 158.813309,584.192871 158.910583,585.371582 
	C159.208344,588.979553 159.223007,592.630005 159.038589,596.248169 
	C158.976044,597.475220 157.992599,598.655334 157.429977,599.856934 
	C156.446960,598.778198 155.230896,597.825500 154.557220,596.579529 
	C154.050201,595.641846 154.238800,594.328064 154.114120,592.730957 
z"/>
<path fill="#9BA3C3" opacity="1.000000" stroke="none" 
	d="
M257.241638,647.696594 
	C259.323395,644.218567 262.283600,642.911255 265.508789,644.252808 
	C267.367249,645.025879 269.613617,647.228271 269.824280,649.007629 
	C270.092255,651.271423 269.142212,654.605042 267.483917,655.909058 
	C265.846344,657.196838 262.375366,657.331848 260.236633,656.542358 
	C256.528534,655.173523 256.242798,651.626892 257.241638,647.696594 
z"/>
<path fill="#9BA3C3" opacity="1.000000" stroke="none" 
	d="
M149.374939,620.844238 
	C149.923767,626.293823 147.893204,629.549744 143.820679,629.968567 
	C139.780609,630.383972 136.974655,628.546936 136.147232,624.543030 
	C135.312714,620.504883 137.296555,617.673645 141.101501,616.527283 
	C144.803345,615.412048 147.524445,617.105225 149.374939,620.844238 
z"/>
</svg>